<svg width="340" height="348" viewBox="0 0 340 348" fill="none" xmlns="http://www.w3.org/2000/svg">
<path d="M214.05 150.781C197.17 221.362 133.352 259.997 103.553 270.491" stroke="#F4F4F4" stroke-width="1.35227" stroke-linecap="round"/>
<path d="M262.918 219.651C228.476 281.47 155.509 300.591 123.331 302.424" stroke="#F4F4F4" stroke-width="1.35227" stroke-linecap="round"/>
<path d="M107.828 89.3784C126.566 163.103 91.4939 230.688 71.6154 255.265" stroke="#F4F4F4" stroke-width="1.35227" stroke-linecap="round"/>
<path d="M44.1162 45.1164L66.9797 35.2573L71.8607 10.7896L88.2707 29.5378L112.987 26.6094L100.266 48.055L110.688 70.7117L86.4113 65.2193L68.1419 82.1525L65.8306 57.3084L44.1162 45.1164Z" fill="white" stroke="white" stroke-width="0.901516" stroke-linecap="round" stroke-linejoin="round"/>
<g clip-path="url(#clip0_228_34)">
<path d="M191.52 117.235L206.401 97.2402L198.421 73.6049L221.986 81.6187L241.93 66.6983L241.613 91.6447L261.943 106.044L238.179 113.451L230.805 137.27L216.408 116.913L191.52 117.235Z" fill="white" stroke="white" stroke-width="0.901516" stroke-linecap="round" stroke-linejoin="round"/>
</g>
<path d="M252.524 183.423L275.387 173.564L280.268 149.096L296.678 167.844L321.394 164.916L308.673 186.362L319.096 209.018L294.819 203.526L276.549 220.459L274.238 195.615L252.524 183.423Z" fill="white" stroke="white" stroke-width="0.901516" stroke-linecap="round" stroke-linejoin="round"/>
<defs>
<clipPath id="clip0_228_34">
<rect width="85.7062" height="85.6151" fill="white" transform="matrix(-0.453428 -0.891401 0.890443 -0.454882 204.597 158.677)"/>
</clipPath>
</defs>
</svg>
