<svg width="235" height="235" viewBox="0 0 235 235" fill="none" xmlns="http://www.w3.org/2000/svg">
<g opacity="0.5">
<path d="M156.666 186.041H78.333V200.729C78.333 204.624 76.7856 208.36 74.0311 211.114C71.2767 213.869 67.5409 215.416 63.6455 215.416H53.8538C49.9585 215.416 46.2227 213.869 43.4682 211.114C40.7138 208.36 39.1663 204.624 39.1663 200.729V184.377C33.4375 182.35 28.478 178.597 24.9708 173.634C21.4636 168.671 19.5813 162.743 19.583 156.666V127.291C19.583 121.221 21.4238 115.581 24.5768 110.9L35.2105 44.3168C36.3148 37.4154 39.8436 31.134 45.163 26.6006C50.4824 22.0673 57.2439 19.5791 64.233 19.583H170.766C177.75 19.5888 184.503 22.0826 189.815 26.6171C195.126 31.1516 198.649 37.4301 199.75 44.3266L210.354 110.812C213.546 115.512 215.407 121.191 215.407 127.291V156.666C215.408 162.743 213.526 168.671 210.019 173.634C206.512 178.597 201.552 182.35 195.823 184.377V200.729C195.823 204.624 194.276 208.36 191.521 211.114C188.767 213.869 185.031 215.416 181.136 215.416H171.344C167.449 215.416 163.713 213.869 160.958 211.114C158.204 208.36 156.657 204.624 156.657 200.729V186.041H156.666ZM188.489 98.0143L180.421 47.4109C180.053 45.1138 178.88 43.0226 177.111 41.5119C175.342 40.0012 173.093 39.1697 170.766 39.1663H64.2232C61.8935 39.165 59.6397 39.9944 57.8665 41.5056C56.0934 43.0167 54.9171 45.1105 54.5491 47.4109L46.4709 98.024C47.2981 97.9535 48.1278 97.9175 48.958 97.9163H186.041C186.864 97.9163 187.686 97.9457 188.489 98.0143ZM171.354 156.666C173.283 156.666 175.193 156.286 176.975 155.548C178.756 154.81 180.376 153.728 181.739 152.364C183.103 151.001 184.185 149.381 184.923 147.6C185.661 145.818 186.041 143.908 186.041 141.979C186.041 140.05 185.661 138.14 184.923 136.358C184.185 134.576 183.103 132.957 181.739 131.593C180.376 130.229 178.756 129.147 176.975 128.409C175.193 127.671 173.283 127.291 171.354 127.291C167.458 127.291 163.723 128.839 160.968 131.593C158.214 134.348 156.666 138.083 156.666 141.979C156.666 145.874 158.214 149.61 160.968 152.364C163.723 155.119 167.458 156.666 171.354 156.666V156.666ZM63.6455 156.666C65.5743 156.666 67.4842 156.286 69.2662 155.548C71.0481 154.81 72.6673 153.728 74.0311 152.364C75.395 151.001 76.4769 149.381 77.215 147.6C77.9531 145.818 78.333 143.908 78.333 141.979C78.333 140.05 77.9531 138.14 77.215 136.358C76.4769 134.576 75.395 132.957 74.0311 131.593C72.6673 130.229 71.0481 129.147 69.2662 128.409C67.4842 127.671 65.5743 127.291 63.6455 127.291C59.7501 127.291 56.0143 128.839 53.2599 131.593C50.5054 134.348 48.958 138.083 48.958 141.979C48.958 145.874 50.5054 149.61 53.2599 152.364C56.0143 155.119 59.7501 156.666 63.6455 156.666V156.666ZM70.5388 49.8784C73.1358 49.8784 75.6263 50.91 77.4626 52.7463C79.2989 54.5826 80.3305 57.0732 80.3305 59.6701V79.2534C80.3305 81.8503 79.2989 84.3409 77.4626 86.1772C75.6263 88.0135 73.1358 89.0451 70.5388 89.0451C67.9419 89.0451 65.4514 88.0135 63.6151 86.1772C61.7788 84.3409 60.7472 81.8503 60.7472 79.2534V59.6701C60.7472 57.0732 61.7788 54.5826 63.6151 52.7463C65.4514 50.91 67.9419 49.8784 70.5388 49.8784Z" fill="#252525"/>
</g>
</svg>
