<svg width="63" height="54" viewBox="0 0 63 54" fill="none" xmlns="http://www.w3.org/2000/svg">
<mask id="mask0_238_520" style="mask-type:alpha" maskUnits="userSpaceOnUse" x="0" y="0" width="63" height="54">
<path d="M0 0H62.649V53.7045H0V0Z" fill="white"/>
</mask>
<g mask="url(#mask0_238_520)">
<path fill-rule="evenodd" clip-rule="evenodd" d="M51.9361 51.8234C47.0638 51.8234 43.113 47.9054 43.1123 43.0706C43.1123 38.2371 47.0624 34.3178 51.9354 34.3171C56.8078 34.3171 60.7585 38.2357 60.7592 43.0699V43.0706C60.753 47.902 56.8064 51.8172 51.9361 51.8234ZM42.0247 39.0344H32.9941L32.9645 38.6111C32.9004 37.6963 32.7701 36.7875 32.5757 35.8904L32.4558 35.34H36.8781C37.3998 35.34 37.8223 34.9195 37.8223 34.4019C37.8216 33.8843 37.3991 33.4652 36.8781 33.4652H31.8789L31.7673 33.1711C28.0226 23.2936 16.9704 18.2372 6.96593 21.8249L6.35181 22.045V17.9917L9.42725 15.9534H20.538L23.6072 19.4987C23.7871 19.7059 24.049 19.8249 24.324 19.8249H48.1053C50.1668 19.8269 51.8362 21.4837 51.8389 23.5281V26.8929C51.8382 27.1753 51.9664 27.4426 52.1877 27.6204L55.1439 30.0006V32.9134L54.5725 32.7691C49.5113 31.4966 44.262 34.0286 42.146 38.7636L42.0247 39.0344ZM10.0855 5.5781C10.0876 3.53366 11.7576 1.8776 13.8185 1.87486H15.5643V14.0786H10.0855V5.5781ZM17.4536 1.87486H26.3773L30.661 17.95H24.7576L21.6883 14.4047C21.5084 14.1975 21.2472 14.0786 20.9715 14.0786H17.4536V1.87486ZM57.2633 33.8576L57.0338 33.7257V29.5547C57.0338 29.2724 56.9063 29.005 56.6851 28.8272L53.7282 26.4464V23.5281C53.7247 20.4491 51.209 17.9534 48.1053 17.95H42.0674V11.7367C42.0654 9.67654 40.3822 8.0068 38.3055 8.00544C37.7837 8.00544 37.3612 8.42526 37.3612 8.94287C37.3612 9.45979 37.7844 9.87962 38.3055 9.87962C39.3394 9.88098 40.1761 10.7118 40.1775 11.7367V17.95H32.6157L28.3327 1.87486H29.4913C30.0131 1.87486 30.4363 1.45504 30.4363 0.937432C30.4363 0.419827 30.0131 0 29.4913 0H13.8185C10.7141 0.00341879 8.199 2.49845 8.19556 5.5781V14.5148L4.88233 16.7117C4.61972 16.8854 4.46257 17.178 4.46257 17.4912V22.925L4.22478 23.0549C2.80355 23.8296 1.4857 24.776 0.299496 25.8727C-0.0816597 26.2262 -0.101648 26.8197 0.254695 27.1978C0.611038 27.576 1.20862 27.5958 1.59046 27.243C8.67114 20.6755 19.7784 21.0467 26.398 28.0717C29.4397 31.299 31.1304 35.5534 31.1283 39.9718C31.129 40.4887 31.5515 40.9079 32.0733 40.9085H41.4326L41.3506 41.433C41.2665 41.9745 41.2238 42.5215 41.2231 43.0706C41.2196 48.9393 46.0127 53.701 51.9292 53.7044C57.8458 53.7085 62.645 48.9536 62.6485 43.0843C62.6512 39.273 60.5959 35.7523 57.2633 33.8569V33.8576Z" fill="white"/>
<path fill-rule="evenodd" clip-rule="evenodd" d="M51.9879 47.0487C50.1512 47.0487 48.6617 45.56 48.6617 43.7235C48.6617 41.8855 50.1512 40.3969 51.9879 40.3969C53.8252 40.3969 55.314 41.8855 55.314 43.7235C55.3119 45.5586 53.8238 47.0466 51.9879 47.0487ZM51.9879 38.4389C49.0696 38.4389 46.7036 40.8047 46.7036 43.7235C46.7036 46.6415 49.0689 49.0074 51.9872 49.0074C54.9061 49.0074 57.2721 46.6422 57.2721 43.7235C57.2693 40.8062 54.9054 38.4424 51.9879 38.4389ZM13.8241 52.9548C7.10433 52.9548 1.65718 47.5071 1.65718 40.7881C1.65718 34.0685 7.10433 28.6208 13.8241 28.6208C20.5439 28.6208 25.9911 34.0685 25.9911 40.7881C25.9834 47.5043 20.5404 52.9471 13.8241 52.9548ZM13.8241 26.6961C6.04158 26.6961 -0.267578 33.0051 -0.267578 40.7874C-0.267578 48.5698 6.04087 54.8781 13.8234 54.8788C21.606 54.8788 27.9151 48.5705 27.9151 40.7881C27.9067 33.0093 21.6032 26.7052 13.8241 26.6961Z" fill="white"/>
<path fill-rule="evenodd" clip-rule="evenodd" d="M13.2362 44.8412C10.6738 44.8412 8.5962 42.7636 8.5962 40.201C8.5962 37.6384 10.6738 35.5607 13.2362 35.5607C15.7987 35.5607 17.8762 37.6384 17.8762 40.201C17.8729 42.7622 15.7973 44.8379 13.2362 44.8412ZM13.2362 33.7418C9.66947 33.7418 6.77734 36.6327 6.77734 40.2003C6.77734 43.7672 9.66881 46.6588 13.2356 46.6588C16.8023 46.6595 19.6944 43.7679 19.6944 40.201C19.6904 36.6354 16.8016 33.7458 13.2362 33.7418ZM36.1339 24.3475C35.4853 24.3482 34.9609 24.7268 34.9601 25.1937V28.1979C34.9601 28.6654 35.4853 29.0447 36.1339 29.0447C36.7825 29.0447 37.3086 28.6654 37.3086 28.1979V25.1937C37.3078 24.7268 36.7825 24.3482 36.1339 24.3475ZM40.831 24.3475C40.1833 24.3482 39.658 24.7268 39.6572 25.1938V28.1984C39.6572 28.6666 40.1833 29.0453 40.8319 29.0447C41.4805 29.0447 42.0057 28.666 42.0057 28.1984V25.1938C42.0049 24.7268 41.4796 24.3482 40.831 24.3475ZM46.7033 29.0447C47.3519 29.044 47.8763 28.6648 47.8771 28.1978V25.1932C47.8763 24.7256 47.3502 24.3469 46.7007 24.3475C46.0538 24.3482 45.5294 24.7262 45.5286 25.1932V28.1978C45.5294 28.6654 46.0547 29.044 46.7033 29.0447Z" fill="white"/>
</g>
</svg>
