<svg width="237" height="233" viewBox="0 0 237 233" fill="none" xmlns="http://www.w3.org/2000/svg">
<g opacity="0.5">
<path d="M79 43.6872C73.762 43.6872 68.7385 45.7329 65.0346 49.3742C61.3308 53.0155 59.25 57.9542 59.25 63.1038V112.014L177.75 111.791V63.1038C177.75 57.9542 175.669 53.0155 171.965 49.3742C168.262 45.7329 163.238 43.6872 158 43.6872H79ZM154.712 189.312L148.125 179.604H88.875L82.2884 189.312H79C68.5239 189.312 58.477 185.221 51.0693 177.938C43.6616 170.656 39.5 160.778 39.5 150.479V63.1038C39.5 52.8046 43.6616 42.9272 51.0693 35.6445C58.477 28.3619 68.5239 24.2705 79 24.2705L158 24.2705C168.476 24.2705 178.523 28.3619 185.931 35.6445C193.338 42.9272 197.5 52.8046 197.5 63.1038V150.479C197.5 160.778 193.338 170.656 185.931 177.938C178.523 185.221 168.476 189.312 158 189.312H154.712ZM79 160.187C81.619 160.187 84.1308 159.164 85.9827 157.344C87.8346 155.523 88.875 153.054 88.875 150.479C88.875 147.904 87.8346 145.435 85.9827 143.614C84.1308 141.793 81.619 140.771 79 140.771C76.381 140.771 73.8692 141.793 72.0173 143.614C70.1654 145.435 69.125 147.904 69.125 150.479C69.125 153.054 70.1654 155.523 72.0173 157.344C73.8692 159.164 76.381 160.187 79 160.187V160.187ZM158 160.187C160.619 160.187 163.131 159.164 164.983 157.344C166.835 155.523 167.875 153.054 167.875 150.479C167.875 147.904 166.835 145.435 164.983 143.614C163.131 141.793 160.619 140.771 158 140.771C155.381 140.771 152.869 141.793 151.017 143.614C149.165 145.435 148.125 147.904 148.125 150.479C148.125 153.054 149.165 155.523 151.017 157.344C152.869 159.164 155.381 160.187 158 160.187V160.187ZM158 53.3955C160.619 53.3955 163.131 54.4183 164.983 56.239C166.835 58.0597 167.875 60.529 167.875 63.1038V92.2288C167.875 94.8037 166.835 97.273 164.983 99.0937C163.131 100.914 160.619 101.937 158 101.937C155.381 101.937 152.869 100.914 151.017 99.0937C149.165 97.273 148.125 94.8037 148.125 92.2288V63.1038C148.125 60.529 149.165 58.0597 151.017 56.239C152.869 54.4183 155.381 53.3955 158 53.3955V53.3955ZM82.1008 189.594L154.889 189.584L157.644 193.632C158.638 195.096 159.208 196.797 159.294 198.554C159.38 200.312 158.978 202.059 158.132 203.609C157.287 205.16 156.028 206.455 154.492 207.357C152.955 208.258 151.198 208.733 149.409 208.729H87.5912C85.8026 208.731 84.047 208.255 82.5119 207.353C80.9768 206.45 79.7198 205.155 78.8752 203.605C78.0306 202.055 77.6301 200.308 77.7164 198.552C77.8027 196.796 78.3727 195.095 79.3654 193.632L82.1106 189.594H82.1008Z" fill="white"/>
</g>
</svg>
