<?xml version="1.0" encoding="utf-8"?>
<!-- Generator: Adobe Illustrator 26.5.0, SVG Export Plug-In . SVG Version: 6.00 Build 0)  -->
<svg version="1.1" id="Calque_1" xmlns="http://www.w3.org/2000/svg" xmlns:xlink="http://www.w3.org/1999/xlink" x="0px" y="0px"
	 viewBox="0 0 595.28 841.89" style="enable-background:new 0 0 595.28 841.89;" xml:space="preserve">
<style type="text/css">
	.st0{clip-path:url(#SVGID_00000071530691947290946080000013165604605791111305_);fill:#FFFFFF;}
	.st1{clip-path:url(#SVGID_00000106147655065648350050000004647981213870905728_);fill:#FFFFFF;}
	.st2{clip-path:url(#SVGID_00000060725504323110025060000003255322237084782982_);fill:#FFFFFF;}
	.st3{clip-path:url(#SVGID_00000181046780738893475750000000477408660212548514_);fill:#008D36;}
</style>
<g>
	<g>
		<g>
			<defs>
				<rect id="SVGID_1_" x="230.36" y="371" width="123.44" height="116.99"/>
			</defs>
			<clipPath id="SVGID_00000081625093429748813470000017402606914963503292_">
				<use xlink:href="#SVGID_1_"  style="overflow:visible;"/>
			</clipPath>
			<path style="clip-path:url(#SVGID_00000081625093429748813470000017402606914963503292_);fill:#FFFFFF;" d="M324.99,482.55
				l1.2-0.32c-0.09-0.59-0.36-1.06-0.81-1.41c-0.45-0.34-1.02-0.52-1.7-0.52c-0.48,0-0.9,0.09-1.28,0.27s-0.67,0.44-0.88,0.77
				c-0.21,0.34-0.32,0.72-0.32,1.17c0,0.52,0.16,0.95,0.48,1.3c0.32,0.35,0.82,0.61,1.5,0.77l1.01,0.26
				c0.59,0.14,0.88,0.45,0.88,0.93c0,0.32-0.11,0.57-0.34,0.74c-0.23,0.18-0.55,0.27-0.95,0.27c-0.45,0-0.8-0.11-1.07-0.34
				c-0.27-0.22-0.4-0.52-0.42-0.88l-1.22,0.19c0.04,0.43,0.17,0.81,0.4,1.14c0.23,0.33,0.54,0.6,0.93,0.78
				c0.39,0.19,0.85,0.28,1.37,0.28s0.97-0.09,1.37-0.28c0.4-0.18,0.7-0.45,0.92-0.79c0.21-0.34,0.32-0.73,0.32-1.18
				c0-0.51-0.15-0.93-0.44-1.29c-0.3-0.35-0.75-0.61-1.34-0.76l-1.03-0.26c-0.35-0.09-0.61-0.22-0.78-0.36
				c-0.18-0.14-0.27-0.35-0.27-0.61c0-0.29,0.11-0.52,0.32-0.7s0.49-0.27,0.84-0.27c0.37,0,0.67,0.09,0.91,0.29
				C324.81,481.95,324.95,482.22,324.99,482.55 M314.36,480.46v7.37h1.22v-5.26l3.22,5.26h1.2v-7.37h-1.22v5.27l-3.21-5.27H314.36z
				 M310.78,486.42c-0.36,0.22-0.76,0.34-1.22,0.34c-0.45,0-0.85-0.11-1.21-0.34c-0.36-0.22-0.64-0.53-0.83-0.92
				c-0.2-0.4-0.3-0.85-0.3-1.35s0.1-0.95,0.3-1.34c0.2-0.39,0.47-0.7,0.83-0.92c0.35-0.22,0.76-0.33,1.21-0.33
				c0.46,0,0.87,0.11,1.22,0.33s0.62,0.53,0.83,0.92c0.2,0.39,0.3,0.84,0.3,1.35s-0.1,0.96-0.3,1.36
				C311.41,485.89,311.13,486.2,310.78,486.42 M307.66,487.49c0.56,0.34,1.19,0.5,1.9,0.5s1.35-0.17,1.9-0.5
				c0.56-0.33,0.99-0.79,1.31-1.38c0.31-0.59,0.47-1.24,0.47-1.97c0-0.72-0.15-1.38-0.46-1.96c-0.31-0.59-0.75-1.04-1.3-1.38
				c-0.56-0.33-1.19-0.5-1.9-0.5c-0.72,0-1.36,0.17-1.92,0.5c-0.56,0.34-0.99,0.79-1.3,1.38s-0.46,1.24-0.46,1.96
				c0,0.73,0.15,1.39,0.46,1.98S307.1,487.16,307.66,487.49 M303.59,487.83h1.19v-7.37h-1.19V487.83z M302.41,481.63v-1.17h-5.3
				v1.17h2.05v6.2h1.22v-6.2H302.41z M290.69,480.46v4.67c0,0.57,0.11,1.06,0.34,1.49s0.55,0.76,0.97,1s0.91,0.35,1.47,0.35
				s1.04-0.12,1.46-0.35c0.42-0.24,0.74-0.57,0.96-1s0.33-0.93,0.33-1.49v-4.67h-1.21v4.55c0,0.55-0.14,0.98-0.41,1.3
				c-0.28,0.33-0.65,0.49-1.13,0.49c-0.47,0-0.84-0.16-1.12-0.47c-0.28-0.32-0.42-0.75-0.42-1.32v-4.55L290.69,480.46L290.69,480.46
				z M289.81,486.66h-3.04v-6.2h-1.23v7.37h4.27L289.81,486.66L289.81,486.66z M282.08,486.42c-0.35,0.22-0.76,0.34-1.22,0.34
				c-0.45,0-0.85-0.11-1.21-0.34c-0.36-0.22-0.64-0.53-0.83-0.92c-0.2-0.4-0.3-0.85-0.3-1.35s0.1-0.95,0.3-1.34
				c0.2-0.39,0.47-0.7,0.83-0.92c0.35-0.22,0.76-0.33,1.21-0.33c0.46,0,0.87,0.11,1.22,0.33s0.62,0.53,0.83,0.92
				c0.2,0.39,0.3,0.84,0.3,1.35s-0.1,0.96-0.3,1.36C282.7,485.89,282.43,486.2,282.08,486.42 M278.95,487.49
				c0.56,0.34,1.19,0.5,1.9,0.5s1.35-0.17,1.91-0.5s0.99-0.79,1.31-1.38c0.31-0.59,0.47-1.24,0.47-1.97c0-0.72-0.15-1.38-0.46-1.96
				s-0.75-1.04-1.3-1.38c-0.56-0.33-1.19-0.5-1.9-0.5c-0.72,0-1.36,0.17-1.92,0.5c-0.56,0.34-0.99,0.79-1.3,1.38
				s-0.46,1.24-0.46,1.96c0,0.73,0.15,1.39,0.46,1.98C277.96,486.7,278.4,487.16,278.95,487.49 M275.02,482.55l1.2-0.32
				c-0.09-0.59-0.36-1.06-0.81-1.41c-0.45-0.34-1.02-0.52-1.7-0.52c-0.48,0-0.9,0.09-1.28,0.27s-0.67,0.44-0.88,0.77
				c-0.21,0.34-0.32,0.72-0.32,1.17c0,0.52,0.16,0.95,0.48,1.3c0.32,0.35,0.82,0.61,1.5,0.77l1.01,0.26
				c0.59,0.14,0.88,0.45,0.88,0.93c0,0.32-0.11,0.57-0.34,0.74c-0.23,0.18-0.55,0.27-0.95,0.27c-0.45,0-0.8-0.11-1.07-0.34
				c-0.27-0.22-0.4-0.52-0.42-0.88l-1.21,0.19c0.04,0.43,0.17,0.81,0.4,1.14c0.23,0.33,0.54,0.6,0.93,0.78
				c0.39,0.19,0.85,0.28,1.37,0.28s0.97-0.09,1.37-0.28c0.4-0.18,0.7-0.45,0.92-0.79c0.21-0.34,0.32-0.73,0.32-1.18
				c0-0.51-0.15-0.93-0.44-1.29c-0.3-0.35-0.75-0.61-1.34-0.76l-1.03-0.26c-0.35-0.09-0.61-0.22-0.78-0.36
				c-0.18-0.14-0.27-0.35-0.27-0.61c0-0.29,0.11-0.52,0.32-0.7c0.21-0.18,0.49-0.27,0.84-0.27c0.37,0,0.68,0.09,0.91,0.29
				C274.84,481.95,274.98,482.22,275.02,482.55 M268.04,481.63v-1.17h-5.3v1.17h2.05v6.2H266v-6.2H268.04z M257.79,480.46v7.37h4.16
				v-1.17h-2.94v-2h2.64v-1.1h-2.64v-1.93h2.94v-1.17L257.79,480.46L257.79,480.46z"/>
		</g>
	</g>
	<g>
		<g>
			<defs>
				<rect id="SVGID_00000163036312890715807000000013918042047385094284_" x="230.36" y="371" width="123.44" height="116.99"/>
			</defs>
			<clipPath id="SVGID_00000088817437766023120460000001540188518914194078_">
				<use xlink:href="#SVGID_00000163036312890715807000000013918042047385094284_"  style="overflow:visible;"/>
			</clipPath>
			<path style="clip-path:url(#SVGID_00000088817437766023120460000001540188518914194078_);fill:#FFFFFF;" d="M352.41,470.45
				l1.2-0.32c-0.09-0.59-0.36-1.06-0.81-1.41c-0.45-0.34-1.02-0.52-1.7-0.52c-0.48,0-0.9,0.09-1.28,0.27s-0.67,0.44-0.88,0.77
				s-0.32,0.72-0.32,1.17c0,0.52,0.16,0.95,0.48,1.3c0.32,0.35,0.82,0.61,1.5,0.77l1.01,0.26c0.59,0.14,0.88,0.45,0.88,0.93
				c0,0.32-0.11,0.57-0.34,0.74c-0.23,0.18-0.55,0.27-0.95,0.27c-0.45,0-0.8-0.11-1.07-0.34c-0.27-0.22-0.4-0.52-0.42-0.88
				l-1.21,0.19c0.04,0.43,0.17,0.81,0.4,1.14c0.23,0.33,0.54,0.6,0.93,0.78c0.39,0.19,0.85,0.28,1.37,0.28s0.97-0.09,1.37-0.28
				c0.4-0.18,0.7-0.45,0.92-0.79c0.21-0.34,0.32-0.73,0.32-1.18c0-0.51-0.15-0.94-0.44-1.29c-0.3-0.35-0.75-0.61-1.34-0.76
				l-1.03-0.26c-0.35-0.09-0.61-0.22-0.78-0.36c-0.18-0.14-0.27-0.35-0.27-0.61c0-0.29,0.11-0.52,0.32-0.7
				c0.21-0.18,0.49-0.27,0.84-0.27c0.37,0,0.67,0.09,0.91,0.29C352.24,469.85,352.37,470.12,352.41,470.45 M343.62,468.37v7.37h4.16
				v-1.17h-2.94v-2h2.64v-1.1h-2.64v-1.93h2.94v-1.17L343.62,468.37L343.62,468.37z M342.58,474.56h-3.04v-6.2h-1.23v7.37h4.27
				L342.58,474.56L342.58,474.56z M335.18,473.19h-2.07l0.6-1.79c0.02-0.07,0.05-0.14,0.07-0.2c0.22-0.67,0.34-1.06,0.36-1.18
				c0.04,0.17,0.18,0.64,0.44,1.38L335.18,473.19z M335.55,474.3l0.48,1.43h1.45l-2.68-7.37h-1.32l-2.68,7.37h1.44l0.49-1.43H335.55
				z M328.78,475.73h1.19v-7.37h-1.19V475.73z M322.63,475.41c0.53,0.32,1.14,0.48,1.83,0.48c0.53,0,1.02-0.09,1.47-0.29
				c0.45-0.19,0.83-0.46,1.13-0.81c0.3-0.35,0.51-0.74,0.62-1.2l-1.22-0.44c-0.11,0.46-0.35,0.82-0.71,1.09s-0.79,0.41-1.27,0.41
				c-0.43,0-0.81-0.11-1.14-0.33c-0.33-0.21-0.6-0.52-0.78-0.91c-0.19-0.39-0.28-0.85-0.28-1.37s0.09-0.97,0.28-1.36
				c0.18-0.39,0.44-0.7,0.78-0.92c0.33-0.21,0.71-0.32,1.14-0.32c0.48,0,0.91,0.14,1.27,0.41s0.6,0.64,0.71,1.09l1.22-0.44
				c-0.12-0.46-0.34-0.86-0.64-1.21c-0.3-0.35-0.68-0.61-1.12-0.8s-0.93-0.28-1.44-0.28c-0.68,0-1.29,0.16-1.83,0.48
				c-0.54,0.32-0.95,0.77-1.25,1.35c-0.3,0.58-0.45,1.25-0.45,2.01c0,0.75,0.15,1.42,0.44,2
				C321.68,474.64,322.09,475.09,322.63,475.41 M316.08,468.37v7.37h4.16v-1.17h-2.94v-2h2.64v-1.1h-2.64v-1.93h2.94v-1.17
				L316.08,468.37L316.08,468.37z M318.39,466.42l-0.65,1.45h0.84l0.96-1.45H318.39z M312.44,472.08h-1.57v-2.55h1.57
				c0.42,0,0.74,0.11,0.96,0.34s0.33,0.54,0.33,0.92s-0.11,0.68-0.33,0.93C313.18,471.96,312.86,472.08,312.44,472.08
				 M309.66,468.37v7.37h1.22v-2.53h1.66c0.5,0,0.94-0.1,1.3-0.31c0.37-0.2,0.65-0.49,0.86-0.86c0.2-0.37,0.3-0.79,0.3-1.27
				c0-0.47-0.1-0.89-0.3-1.26c-0.2-0.36-0.49-0.65-0.86-0.85s-0.8-0.3-1.29-0.3L309.66,468.37L309.66,468.37z M307.17,470.45
				l1.2-0.32c-0.09-0.59-0.36-1.06-0.81-1.41c-0.45-0.34-1.02-0.52-1.7-0.52c-0.48,0-0.9,0.09-1.28,0.27s-0.67,0.44-0.88,0.77
				s-0.32,0.72-0.32,1.17c0,0.52,0.16,0.95,0.48,1.3c0.32,0.35,0.82,0.61,1.5,0.77l1.01,0.26c0.59,0.14,0.88,0.45,0.88,0.93
				c0,0.32-0.11,0.57-0.35,0.74c-0.23,0.18-0.55,0.27-0.94,0.27c-0.45,0-0.8-0.11-1.07-0.34c-0.27-0.22-0.4-0.52-0.42-0.88
				l-1.22,0.19c0.04,0.43,0.17,0.81,0.4,1.14c0.23,0.33,0.54,0.6,0.93,0.78c0.39,0.19,0.85,0.28,1.37,0.28s0.97-0.09,1.37-0.28
				c0.4-0.18,0.7-0.45,0.92-0.79c0.21-0.34,0.32-0.73,0.32-1.18c0-0.51-0.15-0.94-0.44-1.29c-0.3-0.35-0.75-0.61-1.34-0.76
				l-1.03-0.26c-0.35-0.09-0.61-0.22-0.78-0.36c-0.18-0.14-0.27-0.35-0.27-0.61c0-0.29,0.11-0.52,0.32-0.7
				c0.21-0.18,0.49-0.27,0.84-0.27c0.37,0,0.67,0.09,0.91,0.29C306.99,469.85,307.13,470.12,307.17,470.45 M298.67,470.45l1.2-0.32
				c-0.09-0.59-0.36-1.06-0.81-1.41c-0.45-0.34-1.02-0.52-1.7-0.52c-0.48,0-0.9,0.09-1.28,0.27s-0.67,0.44-0.88,0.77
				s-0.32,0.72-0.32,1.17c0,0.52,0.16,0.95,0.48,1.3c0.32,0.35,0.82,0.61,1.5,0.77l1.01,0.26c0.59,0.14,0.88,0.45,0.88,0.93
				c0,0.32-0.11,0.57-0.34,0.74c-0.23,0.18-0.55,0.27-0.94,0.27c-0.45,0-0.8-0.11-1.07-0.34c-0.27-0.22-0.4-0.52-0.42-0.88
				l-1.22,0.19c0.04,0.43,0.17,0.81,0.4,1.14c0.23,0.33,0.54,0.6,0.93,0.78c0.39,0.19,0.85,0.28,1.37,0.28s0.97-0.09,1.37-0.28
				c0.4-0.18,0.7-0.45,0.92-0.79c0.21-0.34,0.32-0.73,0.32-1.18c0-0.51-0.15-0.94-0.44-1.29c-0.3-0.35-0.75-0.61-1.34-0.76
				l-1.03-0.26c-0.35-0.09-0.61-0.22-0.78-0.36c-0.18-0.14-0.27-0.35-0.27-0.61c0-0.29,0.11-0.52,0.32-0.7
				c0.21-0.18,0.49-0.27,0.84-0.27c0.37,0,0.67,0.09,0.91,0.29C298.49,469.85,298.63,470.12,298.67,470.45 M289.88,468.37v7.37h4.16
				v-1.17h-2.94v-2h2.64v-1.1h-2.64v-1.93h2.94v-1.17L289.88,468.37L289.88,468.37z M282.8,468.37v7.37h1.22v-5.26l3.22,5.26h1.2
				v-7.37h-1.22v5.27l-3.2-5.27H282.8z M280.19,475.73h1.19v-7.37h-1.19V475.73z M278.76,468.37h-1.22v3.17h-3.18v-3.17h-1.22v7.37
				h1.22v-3.02h3.18v3.02h1.22V468.37z M266.99,475.41c0.53,0.32,1.14,0.48,1.83,0.48c0.53,0,1.02-0.09,1.47-0.29
				c0.45-0.19,0.83-0.46,1.13-0.81c0.3-0.35,0.51-0.74,0.62-1.2l-1.22-0.44c-0.11,0.46-0.35,0.82-0.71,1.09s-0.79,0.41-1.27,0.41
				c-0.43,0-0.81-0.11-1.14-0.33c-0.34-0.21-0.6-0.52-0.78-0.91c-0.19-0.39-0.28-0.85-0.28-1.37s0.09-0.97,0.28-1.36
				c0.18-0.39,0.44-0.7,0.78-0.92c0.33-0.21,0.71-0.32,1.14-0.32c0.48,0,0.9,0.14,1.27,0.41c0.36,0.27,0.6,0.64,0.71,1.09l1.22-0.44
				c-0.12-0.46-0.33-0.86-0.64-1.21c-0.3-0.35-0.68-0.61-1.12-0.8s-0.93-0.28-1.44-0.28c-0.68,0-1.3,0.16-1.83,0.48
				c-0.54,0.32-0.95,0.77-1.25,1.35c-0.3,0.58-0.45,1.25-0.45,2.01c0,0.75,0.15,1.42,0.44,2
				C266.04,474.64,266.46,475.09,266.99,475.41 M262.62,473.19h-2.07l0.6-1.79c0.02-0.07,0.05-0.14,0.07-0.2
				c0.22-0.67,0.34-1.06,0.36-1.18c0.04,0.17,0.18,0.64,0.44,1.38L262.62,473.19z M262.99,474.3l0.48,1.43h1.45l-2.68-7.37h-1.32
				l-2.68,7.37h1.44l0.49-1.43H262.99z M250.48,468.37v7.37h1.23v-2.97c0-0.67-0.02-1.2-0.04-1.58l1.69,4.55h1.18l1.69-4.57
				c-0.03,0.38-0.05,0.91-0.05,1.6v2.97h1.23v-7.36l-1.23-0.01l-2.23,5.83l-2.25-5.83H250.48z M247.06,469.53v-1.17h-5.3v1.17h2.05
				v6.2h1.22v-6.2H247.06z M237.86,474.56h-1.03v-5.04h1.03c0.44,0,0.84,0.1,1.18,0.3c0.34,0.21,0.6,0.5,0.79,0.88
				c0.18,0.38,0.27,0.83,0.27,1.34c0,0.77-0.2,1.38-0.6,1.84C239.1,474.34,238.56,474.56,237.86,474.56 M235.6,468.37v7.37h2.33
				c0.71,0,1.33-0.15,1.84-0.44c0.52-0.29,0.91-0.72,1.19-1.27c0.28-0.56,0.42-1.22,0.42-1.98c0-0.73-0.13-1.37-0.4-1.93
				c-0.27-0.56-0.66-0.99-1.19-1.29s-1.15-0.46-1.87-0.46H235.6z M230.36,468.37v7.37h4.16v-1.17h-2.94v-2h2.64v-1.1h-2.64v-1.93
				h2.94v-1.17L230.36,468.37L230.36,468.37z"/>
		</g>
	</g>
	<g>
		<g>
			<defs>
				<rect id="SVGID_00000031171176171272309870000011620400700632248254_" x="230.36" y="371" width="123.44" height="116.99"/>
			</defs>
			<clipPath id="SVGID_00000012441249845540647980000013449209576431841192_">
				<use xlink:href="#SVGID_00000031171176171272309870000011620400700632248254_"  style="overflow:visible;"/>
			</clipPath>
			<path style="clip-path:url(#SVGID_00000012441249845540647980000013449209576431841192_);fill:#FFFFFF;" d="M335.34,414.42
				c0,23.98-19.44,43.42-43.42,43.42s-43.42-19.44-43.42-43.42c0-23.98,19.44-43.42,43.42-43.42
				C315.9,371,335.34,390.44,335.34,414.42"/>
		</g>
	</g>
	<g>
		<g>
			<defs>
				<rect id="SVGID_00000108285709200585855940000005130121983407474866_" x="230.36" y="371" width="123.44" height="116.99"/>
			</defs>
			<clipPath id="SVGID_00000028297844690071156250000010749428231423951550_">
				<use xlink:href="#SVGID_00000108285709200585855940000005130121983407474866_"  style="overflow:visible;"/>
			</clipPath>
			<path style="clip-path:url(#SVGID_00000028297844690071156250000010749428231423951550_);fill:#008D36;" d="M291.98,410.53
				l2.19-11.15c0.1-0.49-0.22-0.96-0.71-1.05c-0.49-0.1-0.96,0.22-1.05,0.71l-2.19,11.15c-0.1,0.49,0.22,0.96,0.71,1.05
				c0.06,0.01,0.12,0.02,0.17,0.02C291.52,411.25,291.89,410.96,291.98,410.53 M279.85,425.68c0,0.17-0.13,0.3-0.3,0.3
				c-0.16,0-0.3-0.13-0.3-0.3s0.13-0.3,0.3-0.3C279.71,425.38,279.85,425.51,279.85,425.68 M281.64,425.68
				c0-1.15-0.94-2.09-2.09-2.09s-2.09,0.94-2.09,2.09s0.94,2.09,2.09,2.09S281.64,426.83,281.64,425.68 M284.03,425.68
				c0,2.47-2.01,4.49-4.49,4.49c-2.47,0-4.48-2.01-4.48-4.49s2.01-4.48,4.48-4.48C282.02,421.19,284.03,423.2,284.03,425.68
				 M285.83,425.68c0-3.46-2.82-6.28-6.28-6.28s-6.28,2.82-6.28,6.28s2.82,6.28,6.28,6.28
				C283.01,431.96,285.83,429.14,285.83,425.68 M313.41,434.99H299.3l-3.96-1.54c-0.02-0.01-0.04-0.01-0.06-0.02
				c-0.51-0.16-0.97-0.46-0.97-1.62l2.18-6.55l8.07,2.85l2.64,1.51c0.65,0.43,1.32,0.9,1.99,1.46L313.41,434.99z M309.15,427.64
				l-0.01-3.49l3.03,1.73L309.15,427.64z M313.06,424.33l-3.03-1.73l3.02-1.76L313.06,424.33z M312.15,419.29l-3.02,1.76l-0.01-3.49
				L312.15,419.29z M307.36,427.59c-0.57-0.35-1.12-0.67-1.62-0.95c-0.04-0.02-0.09-0.05-0.13-0.06l-0.3-0.1l-0.98-0.56l3.02-1.76
				L307.36,427.59z M306.45,422.61l-3.02,1.76l-0.01-3.49L306.45,422.61z M307.34,421.05l-3.03-1.73l3.02-1.76L307.34,421.05z
				 M293.91,427.33l-0.3,0.9c-0.07-0.05-0.11-0.14-0.2-0.17l-1.7-0.58c-0.17-0.06-0.34-0.01-0.5,0.03c0.05-0.34,0.08-0.69,0.11-1.04
				l2.19,0.85c0.1,0.03,0.19,0.05,0.29,0.05C293.84,427.37,293.87,427.34,293.91,427.33 M289.61,425.68
				c0,5.55-4.51,10.06-10.06,10.06s-10.06-4.51-10.06-10.06s4.51-10.06,10.06-10.06C285.09,415.62,289.61,420.13,289.61,425.68
				 M296.3,395.98l-3.35,17.65h-3.55c-0.43,0-0.83-0.13-1.18-0.37c-0.58-0.4-1.19-0.75-1.81-1.07c-0.01-0.03,0.02-0.05,0.01-0.08
				l-5.25-16.13H296.3z M316.54,436.21c0.13-0.34,0.04-0.73-0.23-0.99l-5.95-5.49c-0.18-0.15-0.35-0.27-0.53-0.42l4.58-2.66
				l0.01-0.01c0.13-0.08,0.23-0.18,0.31-0.31c0.08-0.14,0.12-0.29,0.12-0.46l-0.02-6.6c0-0.16-0.04-0.31-0.12-0.45l0,0l0,0
				c-0.08-0.13-0.19-0.25-0.33-0.33l-5.72-3.28c-0.14-0.08-0.29-0.12-0.45-0.12l0,0l0,0c-0.15,0-0.31,0.04-0.45,0.12l-5.7,3.32
				c-0.28,0.16-0.45,0.46-0.45,0.78l0.02,5.85l-5.41-1.91c-0.23-0.08-0.48-0.07-0.69,0.04c-0.22,0.11-0.38,0.29-0.46,0.52
				l-0.69,2.06c-0.1-0.1-0.17-0.22-0.3-0.27l-2.41-0.94c-0.13-0.04-0.25,0.01-0.37,0.02c-0.18-2.16-0.89-4.15-2.08-5.83h1.58
				c0.05,0.01,0.08,0.06,0.13,0.06h5c0.06,0,0.1-0.05,0.15-0.06h0.29v-0.1c0.21-0.13,0.39-0.31,0.44-0.57l4.35-22.92
				c0.03-0.09,0.1-0.15,0.1-0.24c0-0.52-0.42-0.95-0.95-0.95h-19.68c-0.03,0-0.05,0.03-0.08,0.03l-1.06-3.25
				c-0.12-0.37-0.46-0.62-0.85-0.62h-22.82c-0.39,0.58-0.73,1.19-1.09,1.79h23.26l3.61,11.09h-31.59c-0.17,0.63-0.35,1.25-0.49,1.89
				h32.28c0.14,0,0.24-0.09,0.36-0.15l2.09,6.42c-1.51-0.5-3.1-0.76-4.73-0.76c-6.7,0-12.65,4.46-14.53,10.88
				c-0.95,1.14-1.93,1.62-3.09,1.51c-2.9-0.68-9.84-2.44-13.17-3.81c0.07,0.69,0.2,1.36,0.31,2.04c4.35,1.61,11.5,3.3,12.51,3.53
				c0.04,0.01,0.07,0.02,0.11,0.02c0.18,0.02,0.37,0.03,0.55,0.03c1.62,0,3.06-0.79,4.3-2.34c0.08-0.1,0.13-0.2,0.16-0.32
				c1.6-5.74,6.89-9.75,12.85-9.75c2.76,0,5.4,0.83,7.65,2.41c0.65,0.45,1.41,0.69,2.21,0.69h4.29c0.43,0,0.8-0.31,0.88-0.73
				l3.56-18.72h1.08l-4.02,21.13h-7.5c-2.13-2.02-4.99-3.29-8.15-3.29c-6.53,0-11.85,5.32-11.85,11.85c0,0.36,0.08,0.71,0.11,1.07
				H250.3c0.19,0.64,0.41,1.26,0.63,1.89h17.19c1.32,5.1,5.93,8.9,11.43,8.9c5.39,0,9.9-3.64,11.34-8.58
				c0.09,0.08,0.14,0.18,0.25,0.22l1.7,0.58c0.08,0.03,0.17,0.04,0.25,0.04l-0.52,1.57c-0.03,0.08-0.04,0.17-0.05,0.26
				c-0.07,2.29,1.15,3.17,2.2,3.5l4.09,1.59c0.1,0.04,0.21,0.06,0.32,0.06h16.58C316.08,436.78,316.41,436.56,316.54,436.21"/>
		</g>
	</g>
</g>
</svg>
