<?xml version="1.0" encoding="utf-8"?>
<!-- Generator: Adobe Illustrator 26.5.0, SVG Export Plug-In . SVG Version: 6.00 Build 0)  -->
<svg version="1.1" id="Calque_1" xmlns="http://www.w3.org/2000/svg" xmlns:xlink="http://www.w3.org/1999/xlink" x="0px" y="0px"
	 viewBox="0 0 595.28 841.89" style="enable-background:new 0 0 595.28 841.89;" xml:space="preserve">
<style type="text/css">
	.st0{clip-path:url(#SVGID_00000142144233593391182670000005920407341855574675_);fill:#FFFFFF;}
	.st1{clip-path:url(#SVGID_00000041995474321647611550000000695965403414603440_);fill:#FFFFFF;}
	.st2{clip-path:url(#SVGID_00000138546945580927893880000006228549642255095435_);fill:#FFFFFF;}
	.st3{clip-path:url(#SVGID_00000039831246587589192060000017277835507924389785_);fill:#008D36;}
	.st4{clip-path:url(#SVGID_00000078012879827642679600000001335196323307627165_);fill:#008D36;}
	.st5{clip-path:url(#SVGID_00000062912698052430239560000016042128261378920111_);fill:#008D36;}
	.st6{clip-path:url(#SVGID_00000169542718549389605660000003818980672111321498_);fill:#008D36;}
	.st7{clip-path:url(#SVGID_00000039103981899819096940000017100329655323045286_);fill:#008D36;}
	.st8{clip-path:url(#SVGID_00000013904776565841163840000005472233560676405168_);fill:#008D36;}
	.st9{clip-path:url(#SVGID_00000070798380479805877120000003667953189026140321_);fill:#008D36;}
	.st10{clip-path:url(#SVGID_00000026848880219411748300000012526882908445725626_);fill:#008D36;}
	.st11{fill:#008D36;}
	.st12{clip-path:url(#SVGID_00000127023494108537199020000011060711753496928128_);fill:#008D36;}
	.st13{clip-path:url(#SVGID_00000049916053440739569000000009787401960755782822_);fill:#008D36;}
	.st14{clip-path:url(#SVGID_00000016795930027803403750000015461272813613352840_);fill:#008D36;}
	.st15{clip-path:url(#SVGID_00000131343910687479414700000005384381518136717498_);fill:#008D36;}
	.st16{clip-path:url(#SVGID_00000150071277690749906270000014339212309827232644_);fill:#008D36;}
	.st17{clip-path:url(#SVGID_00000165195477644028098730000004454977145266918297_);fill:#008D36;}
	.st18{clip-path:url(#SVGID_00000108283761235699322750000013734164357762468235_);fill:#008D36;}
	.st19{clip-path:url(#SVGID_00000021809701442547156710000010335258131036886148_);fill:#008D36;}
	.st20{clip-path:url(#SVGID_00000140001497386050571790000004278193277597340334_);fill:#008D36;}
</style>
<g>
	<g>
		<g>
			<defs>
				<rect id="SVGID_1_" x="248.66" y="370.8" width="86.84" height="116.51"/>
			</defs>
			<clipPath id="SVGID_00000106142509281468004300000006089386009407036573_">
				<use xlink:href="#SVGID_1_"  style="overflow:visible;"/>
			</clipPath>
			<path style="clip-path:url(#SVGID_00000106142509281468004300000006089386009407036573_);fill:#FFFFFF;" d="M325.26,481.88
				l1.2-0.32c-0.09-0.59-0.36-1.06-0.81-1.41c-0.45-0.34-1.02-0.52-1.7-0.52c-0.48,0-0.9,0.09-1.28,0.27s-0.67,0.44-0.88,0.77
				c-0.21,0.34-0.32,0.72-0.32,1.17c0,0.52,0.16,0.95,0.48,1.3c0.32,0.35,0.82,0.61,1.5,0.77l1.01,0.26
				c0.59,0.14,0.88,0.45,0.88,0.93c0,0.32-0.11,0.57-0.35,0.74c-0.23,0.18-0.55,0.27-0.95,0.27c-0.45,0-0.8-0.11-1.07-0.34
				c-0.27-0.22-0.4-0.52-0.42-0.88l-1.21,0.19c0.04,0.43,0.17,0.81,0.4,1.14c0.23,0.33,0.54,0.6,0.93,0.78
				c0.39,0.19,0.85,0.28,1.37,0.28s0.97-0.09,1.37-0.28c0.4-0.18,0.7-0.45,0.92-0.79c0.21-0.34,0.32-0.73,0.32-1.18
				c0-0.51-0.15-0.93-0.44-1.29c-0.3-0.35-0.75-0.61-1.34-0.76l-1.03-0.26c-0.34-0.09-0.61-0.22-0.78-0.36
				c-0.18-0.14-0.27-0.35-0.27-0.61c0-0.29,0.11-0.52,0.32-0.7c0.21-0.18,0.49-0.27,0.84-0.27c0.37,0,0.67,0.09,0.91,0.29
				C325.08,481.28,325.22,481.54,325.26,481.88 M316.47,479.79v7.37h4.16v-1.17h-2.94v-2h2.64v-1.1h-2.64v-1.93h2.94v-1.17
				L316.47,479.79L316.47,479.79z M311.1,483.45v-2.49h1.67c0.41,0,0.73,0.11,0.96,0.33c0.23,0.22,0.34,0.52,0.34,0.89
				c0,0.37-0.11,0.67-0.33,0.91c-0.23,0.24-0.55,0.36-0.96,0.36H311.1z M315.01,483.43c0.21-0.36,0.32-0.79,0.32-1.27
				c0-0.46-0.1-0.88-0.3-1.24c-0.2-0.36-0.49-0.64-0.86-0.84c-0.37-0.2-0.8-0.3-1.3-0.3h-2.99v7.37h1.22v-2.62h1.76h0.05l1.01,2.62
				h1.36l-1.17-2.89C314.5,484.08,314.8,483.8,315.01,483.43 M302.99,479.79v4.67c0,0.57,0.11,1.06,0.35,1.49
				c0.23,0.43,0.55,0.76,0.97,1s0.91,0.35,1.47,0.35s1.04-0.12,1.46-0.35s0.74-0.57,0.96-1s0.33-0.93,0.33-1.49v-4.67h-1.21v4.55
				c0,0.55-0.14,0.98-0.41,1.3c-0.28,0.33-0.65,0.49-1.13,0.49c-0.47,0-0.84-0.16-1.12-0.47c-0.28-0.32-0.42-0.75-0.42-1.32v-4.55
				L302.99,479.79L302.99,479.79z M302.12,480.96v-1.17h-5.3v1.17h2.05v6.2h1.22v-6.2H302.12z M297.08,485.99h-3.04v-6.2h-1.23v7.37
				h4.27L297.08,485.99L297.08,485.99z M285.92,479.79v4.67c0,0.57,0.11,1.06,0.35,1.49c0.23,0.43,0.55,0.76,0.97,1
				s0.91,0.35,1.47,0.35s1.04-0.12,1.46-0.35s0.74-0.57,0.96-1s0.33-0.93,0.33-1.49v-4.67h-1.21v4.55c0,0.55-0.14,0.98-0.41,1.3
				c-0.28,0.33-0.65,0.49-1.13,0.49c-0.47,0-0.84-0.16-1.12-0.47c-0.28-0.32-0.42-0.75-0.42-1.32v-4.55L285.92,479.79L285.92,479.79
				z M279.86,486.83c0.53,0.32,1.14,0.48,1.83,0.48c0.53,0,1.02-0.09,1.47-0.29c0.45-0.19,0.83-0.46,1.13-0.81
				c0.3-0.35,0.51-0.74,0.62-1.2l-1.22-0.44c-0.11,0.46-0.35,0.82-0.71,1.09c-0.37,0.27-0.79,0.41-1.27,0.41
				c-0.43,0-0.81-0.11-1.14-0.33c-0.33-0.21-0.6-0.52-0.78-0.91c-0.19-0.39-0.28-0.85-0.28-1.37s0.09-0.97,0.28-1.36
				c0.18-0.39,0.44-0.7,0.78-0.92c0.33-0.21,0.71-0.32,1.14-0.32c0.48,0,0.9,0.14,1.27,0.41c0.36,0.27,0.6,0.64,0.71,1.09l1.22-0.44
				c-0.12-0.46-0.33-0.86-0.64-1.21c-0.3-0.35-0.68-0.61-1.12-0.8s-0.93-0.28-1.44-0.28c-0.68,0-1.29,0.16-1.83,0.48
				c-0.54,0.32-0.95,0.77-1.25,1.35c-0.3,0.58-0.45,1.25-0.45,2.01c0,0.75,0.15,1.42,0.44,2
				C278.92,486.06,279.33,486.51,279.86,486.83 M273.55,481.88l1.2-0.32c-0.09-0.59-0.36-1.06-0.81-1.41
				c-0.45-0.34-1.02-0.52-1.7-0.52c-0.48,0-0.9,0.09-1.28,0.27s-0.67,0.44-0.88,0.77c-0.21,0.34-0.32,0.72-0.32,1.17
				c0,0.52,0.16,0.95,0.48,1.3c0.32,0.35,0.82,0.61,1.5,0.77l1.01,0.26c0.59,0.14,0.88,0.45,0.88,0.93c0,0.32-0.11,0.57-0.35,0.74
				c-0.23,0.18-0.55,0.27-0.94,0.27c-0.45,0-0.8-0.11-1.07-0.34c-0.27-0.22-0.4-0.52-0.42-0.88l-1.22,0.19
				c0.04,0.43,0.17,0.81,0.4,1.14c0.23,0.33,0.54,0.6,0.93,0.78c0.39,0.19,0.85,0.28,1.37,0.28s0.97-0.09,1.37-0.28
				c0.4-0.18,0.7-0.45,0.92-0.79c0.21-0.34,0.32-0.73,0.32-1.18c0-0.51-0.15-0.93-0.44-1.29c-0.3-0.35-0.75-0.61-1.34-0.76
				l-1.03-0.26c-0.34-0.09-0.61-0.22-0.78-0.36c-0.18-0.14-0.26-0.35-0.26-0.61c0-0.29,0.11-0.52,0.32-0.7
				c0.21-0.18,0.49-0.27,0.84-0.27c0.37,0,0.67,0.09,0.91,0.29C273.37,481.28,273.51,481.54,273.55,481.88 M264.75,479.79v7.37h4.16
				v-1.17h-2.94v-2h2.64v-1.1h-2.64v-1.93h2.94v-1.17L264.75,479.79L264.75,479.79z M260.11,485.99h-1.03v-5.04h1.03
				c0.44,0,0.84,0.1,1.18,0.3c0.34,0.21,0.6,0.5,0.79,0.88c0.18,0.38,0.28,0.83,0.28,1.34c0,0.77-0.2,1.38-0.6,1.84
				C261.35,485.76,260.81,485.99,260.11,485.99 M257.85,479.79v7.37h2.33c0.71,0,1.32-0.15,1.84-0.44s0.91-0.72,1.19-1.27
				c0.28-0.56,0.42-1.22,0.42-1.98c0-0.73-0.13-1.37-0.4-1.93s-0.66-0.99-1.19-1.29s-1.15-0.46-1.87-0.46H257.85z"/>
		</g>
	</g>
	<g>
		<g>
			<defs>
				<rect id="SVGID_00000071524185133932027000000012514837419778764423_" x="248.66" y="370.8" width="86.84" height="116.51"/>
			</defs>
			<clipPath id="SVGID_00000064348717810812391330000007560079762294570932_">
				<use xlink:href="#SVGID_00000071524185133932027000000012514837419778764423_"  style="overflow:visible;"/>
			</clipPath>
			<path style="clip-path:url(#SVGID_00000064348717810812391330000007560079762294570932_);fill:#FFFFFF;" d="M317.29,467.69v7.37
				h1.22v-5.26l3.22,5.26h1.21v-7.37h-1.22v5.27l-3.21-5.27H317.29z M313.72,473.65c-0.35,0.22-0.76,0.33-1.22,0.33
				c-0.45,0-0.85-0.11-1.21-0.33s-0.64-0.53-0.83-0.93c-0.2-0.4-0.3-0.85-0.3-1.35s0.1-0.95,0.3-1.34c0.2-0.39,0.47-0.7,0.83-0.92
				c0.35-0.22,0.76-0.33,1.21-0.33c0.46,0,0.87,0.11,1.22,0.33s0.62,0.53,0.83,0.92c0.2,0.39,0.29,0.84,0.29,1.35
				s-0.1,0.97-0.29,1.36C314.34,473.12,314.07,473.43,313.72,473.65 M310.59,474.72c0.56,0.33,1.19,0.5,1.9,0.5s1.35-0.17,1.9-0.5
				c0.56-0.33,0.99-0.79,1.31-1.38c0.31-0.59,0.47-1.24,0.47-1.97c0-0.72-0.15-1.38-0.46-1.96s-0.75-1.04-1.3-1.38
				c-0.56-0.33-1.19-0.5-1.9-0.5c-0.72,0-1.36,0.17-1.92,0.5c-0.56,0.33-0.99,0.79-1.3,1.38s-0.46,1.24-0.46,1.96
				c0,0.73,0.15,1.39,0.46,1.98S310.04,474.39,310.59,474.72 M306.52,475.06h1.19v-7.37h-1.19V475.06z M305.35,468.86v-1.17h-5.3
				v1.17h2.05v6.2h1.22v-6.2H305.35z M294.43,474.73c0.53,0.32,1.14,0.48,1.83,0.48c0.53,0,1.02-0.09,1.47-0.29
				c0.45-0.19,0.83-0.46,1.13-0.81c0.3-0.35,0.51-0.74,0.62-1.2l-1.22-0.44c-0.11,0.46-0.36,0.82-0.71,1.09
				c-0.36,0.27-0.79,0.41-1.27,0.41c-0.43,0-0.81-0.11-1.14-0.32c-0.33-0.21-0.6-0.52-0.78-0.91c-0.19-0.39-0.28-0.85-0.28-1.37
				s0.09-0.97,0.28-1.36c0.18-0.39,0.44-0.7,0.78-0.92c0.33-0.21,0.71-0.32,1.14-0.32c0.48,0,0.91,0.14,1.27,0.41
				s0.6,0.64,0.71,1.09l1.22-0.44c-0.12-0.46-0.33-0.86-0.64-1.21c-0.31-0.34-0.68-0.61-1.12-0.8s-0.93-0.28-1.44-0.28
				c-0.68,0-1.29,0.16-1.83,0.48c-0.54,0.32-0.95,0.77-1.25,1.35c-0.3,0.58-0.45,1.25-0.45,2.01c0,0.75,0.15,1.42,0.44,2
				C293.49,473.96,293.9,474.41,294.43,474.73 M287.88,467.69v7.37h4.16v-1.17h-2.94v-2h2.64v-1.1h-2.64v-1.93h2.94v-1.17
				L287.88,467.69L287.88,467.69z M286.92,468.86v-1.17h-5.3v1.17h2.05v6.2h1.22v-6.2H286.92z M278.81,473.65
				c-0.36,0.22-0.76,0.33-1.22,0.33c-0.45,0-0.85-0.11-1.21-0.33s-0.64-0.53-0.83-0.93c-0.2-0.4-0.3-0.85-0.3-1.35
				s0.1-0.95,0.3-1.34c0.2-0.39,0.47-0.7,0.83-0.92c0.35-0.22,0.76-0.33,1.21-0.33c0.46,0,0.87,0.11,1.22,0.33s0.62,0.53,0.83,0.92
				c0.2,0.39,0.3,0.84,0.3,1.35s-0.1,0.97-0.3,1.36C279.43,473.12,279.16,473.43,278.81,473.65 M275.68,474.72
				c0.56,0.33,1.19,0.5,1.9,0.5s1.35-0.17,1.9-0.5c0.56-0.33,0.99-0.79,1.31-1.38c0.31-0.59,0.47-1.24,0.47-1.97
				c0-0.72-0.15-1.38-0.46-1.96c-0.31-0.59-0.75-1.04-1.3-1.38c-0.56-0.33-1.19-0.5-1.9-0.5c-0.72,0-1.36,0.17-1.92,0.5
				c-0.56,0.33-0.99,0.79-1.3,1.38s-0.46,1.24-0.46,1.96c0,0.73,0.15,1.39,0.46,1.98S275.13,474.39,275.68,474.72 M268.87,471.35
				v-2.49h1.67c0.41,0,0.73,0.11,0.96,0.33c0.23,0.22,0.34,0.52,0.34,0.89c0,0.37-0.11,0.67-0.34,0.91s-0.55,0.36-0.96,0.36H268.87z
				 M272.78,471.34c0.21-0.36,0.32-0.79,0.32-1.26c0-0.46-0.1-0.88-0.3-1.24c-0.2-0.36-0.49-0.64-0.86-0.84s-0.8-0.3-1.3-0.3h-2.99
				v7.37h1.22v-2.62h1.76h0.05l1.01,2.62h1.36l-1.17-2.89C272.27,471.98,272.57,471.71,272.78,471.34 M264.02,471.41h-1.57v-2.54
				h1.57c0.42,0,0.74,0.11,0.96,0.33c0.22,0.23,0.33,0.54,0.33,0.92s-0.11,0.68-0.33,0.93
				C264.76,471.29,264.44,471.41,264.02,471.41 M261.23,467.69v7.37h1.22v-2.53h1.66c0.5,0,0.93-0.1,1.3-0.31
				c0.37-0.2,0.65-0.49,0.86-0.86c0.2-0.37,0.3-0.79,0.3-1.27c0-0.47-0.1-0.89-0.3-1.26c-0.2-0.36-0.49-0.65-0.86-0.85
				s-0.8-0.3-1.29-0.3L261.23,467.69L261.23,467.69z"/>
		</g>
	</g>
	<g>
		<g>
			<defs>
				<rect id="SVGID_00000020365981954133653810000002601863710778258058_" x="248.66" y="370.8" width="86.84" height="116.51"/>
			</defs>
			<clipPath id="SVGID_00000048461214329382880480000016200582770578505622_">
				<use xlink:href="#SVGID_00000020365981954133653810000002601863710778258058_"  style="overflow:visible;"/>
			</clipPath>
			<path style="clip-path:url(#SVGID_00000048461214329382880480000016200582770578505622_);fill:#FFFFFF;" d="M335.51,414.22
				c0,23.98-19.44,43.42-43.42,43.42c-23.98,0-43.42-19.44-43.42-43.42c0-23.98,19.44-43.42,43.42-43.42
				C316.07,370.8,335.51,390.24,335.51,414.22"/>
		</g>
	</g>
	<g>
		<g>
			<defs>
				<rect id="SVGID_00000165213683163057774590000011076951582145641648_" x="248.66" y="370.8" width="86.84" height="116.51"/>
			</defs>
			<clipPath id="SVGID_00000049222027925475656980000005621378505225927585_">
				<use xlink:href="#SVGID_00000165213683163057774590000011076951582145641648_"  style="overflow:visible;"/>
			</clipPath>
			<path style="clip-path:url(#SVGID_00000049222027925475656980000005621378505225927585_);fill:#008D36;" d="M266.54,419.92h-0.02
				c-0.83,0-1.53-0.43-1.86-1.14c-0.38-0.82-0.19-1.82,0.48-2.61c0.88-1.04,0.97-1.39,0.98-1.41c0.03-0.2,0.2-0.34,0.41-0.34
				c0.2,0,0.38,0.15,0.41,0.36c0,0.01,0.1,0.38,0.97,1.4c0.67,0.79,0.86,1.79,0.48,2.61C268.07,419.49,267.37,419.91,266.54,419.92"
				/>
		</g>
	</g>
	<g>
		<g>
			<defs>
				<rect id="SVGID_00000167376944465775131720000011352146628682865548_" x="248.66" y="370.8" width="86.84" height="116.51"/>
			</defs>
			<clipPath id="SVGID_00000139982998582382567680000005416899495217042335_">
				<use xlink:href="#SVGID_00000167376944465775131720000011352146628682865548_"  style="overflow:visible;"/>
			</clipPath>
			<path style="clip-path:url(#SVGID_00000139982998582382567680000005416899495217042335_);fill:#008D36;" d="M281.25,419.92h-0.02
				c-0.83,0-1.53-0.43-1.86-1.14c-0.38-0.82-0.19-1.82,0.48-2.61c0.88-1.04,0.97-1.39,0.98-1.41c0.03-0.2,0.2-0.34,0.41-0.34
				c0.2,0,0.38,0.15,0.41,0.36c0,0.01,0.11,0.38,0.97,1.4c0.67,0.79,0.86,1.79,0.48,2.61C282.77,419.49,282.08,419.91,281.25,419.92
				"/>
		</g>
	</g>
	<g>
		<g>
			<defs>
				<rect id="SVGID_00000165942319427129810160000017781577554086282130_" x="248.66" y="370.8" width="86.84" height="116.51"/>
			</defs>
			<clipPath id="SVGID_00000160161357434012380210000012848451316095895731_">
				<use xlink:href="#SVGID_00000165942319427129810160000017781577554086282130_"  style="overflow:visible;"/>
			</clipPath>
			<path style="clip-path:url(#SVGID_00000160161357434012380210000012848451316095895731_);fill:#008D36;" d="M288.6,419.92h-0.02
				c-0.83,0-1.53-0.43-1.86-1.14c-0.38-0.82-0.19-1.82,0.48-2.61c0.88-1.04,0.97-1.39,0.98-1.41c0.03-0.2,0.2-0.34,0.41-0.34
				c0.2,0,0.38,0.15,0.41,0.36c0,0.01,0.11,0.38,0.97,1.4c0.67,0.79,0.86,1.79,0.48,2.61C290.12,419.49,289.43,419.91,288.6,419.92"
				/>
		</g>
	</g>
	<g>
		<g>
			<defs>
				<rect id="SVGID_00000021118684999448240810000011211601989094513577_" x="248.66" y="370.8" width="86.84" height="116.51"/>
			</defs>
			<clipPath id="SVGID_00000035530515852247323770000017093250043538408373_">
				<use xlink:href="#SVGID_00000021118684999448240810000011211601989094513577_"  style="overflow:visible;"/>
			</clipPath>
			<path style="clip-path:url(#SVGID_00000035530515852247323770000017093250043538408373_);fill:#008D36;" d="M273.89,419.91h-0.02
				c-0.84,0-1.53-0.43-1.86-1.14c-0.38-0.82-0.19-1.82,0.48-2.61c0.88-1.04,0.97-1.39,0.98-1.41c0.03-0.2,0.2-0.34,0.41-0.34
				c0.2,0,0.38,0.15,0.41,0.36c0,0.01,0.1,0.38,0.97,1.4c0.67,0.79,0.86,1.79,0.48,2.61C275.42,419.48,274.72,419.91,273.89,419.91"
				/>
		</g>
	</g>
	<g>
		<g>
			<defs>
				<rect id="SVGID_00000146492982011609451110000008295261845240338617_" x="248.66" y="370.8" width="86.84" height="116.51"/>
			</defs>
			<clipPath id="SVGID_00000082367257782666635110000003145240252110735241_">
				<use xlink:href="#SVGID_00000146492982011609451110000008295261845240338617_"  style="overflow:visible;"/>
			</clipPath>
			<path style="clip-path:url(#SVGID_00000082367257782666635110000003145240252110735241_);fill:#008D36;" d="M295.95,419.91h-0.02
				c-0.83,0-1.53-0.43-1.86-1.14c-0.38-0.82-0.19-1.82,0.48-2.61c0.88-1.04,0.97-1.39,0.98-1.41c0.03-0.2,0.2-0.34,0.41-0.34
				c0.2,0,0.38,0.15,0.41,0.36c0,0.01,0.1,0.38,0.97,1.4c0.67,0.79,0.86,1.79,0.48,2.61C297.48,419.48,296.78,419.91,295.95,419.91"
				/>
		</g>
	</g>
	<g>
		<g>
			<defs>
				<rect id="SVGID_00000167355510994988172640000005506119947888809862_" x="248.66" y="370.8" width="86.84" height="116.51"/>
			</defs>
			<clipPath id="SVGID_00000070093758248829563780000012384235688312741050_">
				<use xlink:href="#SVGID_00000167355510994988172640000005506119947888809862_"  style="overflow:visible;"/>
			</clipPath>
			<path style="clip-path:url(#SVGID_00000070093758248829563780000012384235688312741050_);fill:#008D36;" d="M303.3,419.91h-0.02
				c-0.83,0-1.53-0.43-1.86-1.14c-0.38-0.82-0.19-1.82,0.48-2.61c0.88-1.04,0.97-1.39,0.98-1.41c0.03-0.2,0.2-0.34,0.41-0.34
				c0.2,0,0.38,0.15,0.41,0.36c0,0.01,0.11,0.38,0.97,1.4c0.67,0.79,0.86,1.79,0.48,2.61C304.83,419.48,304.14,419.91,303.3,419.91"
				/>
		</g>
	</g>
	<g>
		<g>
			<defs>
				<rect id="SVGID_00000131334856275194188550000012018099794940476078_" x="248.66" y="370.8" width="86.84" height="116.51"/>
			</defs>
			<clipPath id="SVGID_00000034053894034250764790000005375552512065793458_">
				<use xlink:href="#SVGID_00000131334856275194188550000012018099794940476078_"  style="overflow:visible;"/>
			</clipPath>
			<path style="clip-path:url(#SVGID_00000034053894034250764790000005375552512065793458_);fill:#008D36;" d="M310.66,419.91h-0.02
				c-0.83,0-1.53-0.43-1.86-1.14c-0.38-0.82-0.19-1.82,0.48-2.61c0.88-1.04,0.97-1.39,0.98-1.41c0.03-0.2,0.2-0.34,0.41-0.34
				c0.2,0,0.38,0.15,0.41,0.36c0,0.01,0.1,0.38,0.97,1.4c0.67,0.79,0.86,1.79,0.48,2.61C312.18,419.48,311.49,419.91,310.66,419.91"
				/>
		</g>
	</g>
	<g>
		<g>
			<defs>
				<rect id="SVGID_00000171702435575608061060000015702011333306270097_" x="248.66" y="370.8" width="86.84" height="116.51"/>
			</defs>
			<clipPath id="SVGID_00000049210473089763974700000005415553283090370721_">
				<use xlink:href="#SVGID_00000171702435575608061060000015702011333306270097_"  style="overflow:visible;"/>
			</clipPath>
			<path style="clip-path:url(#SVGID_00000049210473089763974700000005415553283090370721_);fill:#008D36;" d="M318.01,419.91h-0.02
				c-0.83,0-1.53-0.43-1.86-1.14c-0.38-0.82-0.19-1.82,0.48-2.61c0.88-1.04,0.97-1.39,0.98-1.41c0.03-0.2,0.2-0.34,0.41-0.34
				c0.2,0,0.38,0.15,0.41,0.36c0,0.01,0.1,0.38,0.97,1.4c0.67,0.79,0.86,1.79,0.48,2.61C319.53,419.48,318.84,419.91,318.01,419.91"
				/>
		</g>
	</g>
</g>
<rect x="262.43" y="404.5" class="st11" width="58.85" height="1.76"/>
<g>
	<g>
		<g>
			<defs>
				<rect id="SVGID_00000183950893837824989540000017598297148015053450_" x="248.66" y="370.8" width="86.84" height="116.51"/>
			</defs>
			<clipPath id="SVGID_00000060710450911244203700000011969412707333265594_">
				<use xlink:href="#SVGID_00000183950893837824989540000017598297148015053450_"  style="overflow:visible;"/>
			</clipPath>
			<path style="clip-path:url(#SVGID_00000060710450911244203700000011969412707333265594_);fill:#008D36;" d="M322.32,406.22h-1.76
				c0-8.68-12.85-15.73-28.65-15.73s-28.65,7.06-28.65,15.73h-1.76c0-9.65,13.64-17.5,30.41-17.5S322.32,396.57,322.32,406.22"/>
		</g>
	</g>
</g>
<polygon class="st11" points="309.53,406.35 301.1,392.73 292.31,406.06 283.3,392.65 273.72,406.18 267.01,396.92 268.44,395.89 
	273.71,403.15 283.34,389.54 292.29,402.88 301.14,389.45 309.72,403.3 315.24,396.48 316.61,397.59 "/>
<g>
	<g>
		<g>
			<defs>
				<rect id="SVGID_00000132056990453236429580000012342882056585932468_" x="248.66" y="370.8" width="86.84" height="116.51"/>
			</defs>
			<clipPath id="SVGID_00000036952388168827870320000014780223747808056241_">
				<use xlink:href="#SVGID_00000132056990453236429580000012342882056585932468_"  style="overflow:visible;"/>
			</clipPath>
			<path style="clip-path:url(#SVGID_00000036952388168827870320000014780223747808056241_);fill:#008D36;" d="M266.23,406.49
				c-0.43,0-0.77,0.35-0.77,0.77v1.89c0,0.43,0.35,0.77,0.77,0.77s0.77-0.35,0.77-0.77v-1.89
				C267,406.84,266.66,406.49,266.23,406.49 M266.23,411.69c-1.4,0-2.54-1.14-2.54-2.54v-1.89c0-1.4,1.14-2.54,2.54-2.54
				s2.54,1.14,2.54,2.54v1.89C268.77,410.55,267.63,411.69,266.23,411.69"/>
		</g>
	</g>
	<g>
		<g>
			<defs>
				<rect id="SVGID_00000021109727609755484370000002115692039697841834_" x="248.66" y="370.8" width="86.84" height="116.51"/>
			</defs>
			<clipPath id="SVGID_00000138570881218028498190000005555973422728716477_">
				<use xlink:href="#SVGID_00000021109727609755484370000002115692039697841834_"  style="overflow:visible;"/>
			</clipPath>
			<path style="clip-path:url(#SVGID_00000138570881218028498190000005555973422728716477_);fill:#008D36;" d="M273.63,406.49
				c-0.43,0-0.77,0.35-0.77,0.77v1.89c0,0.43,0.35,0.77,0.77,0.77c0.43,0,0.77-0.35,0.77-0.77v-1.89
				C274.4,406.84,274.05,406.49,273.63,406.49 M273.63,411.69c-1.4,0-2.54-1.14-2.54-2.54v-1.89c0-1.4,1.14-2.54,2.54-2.54
				s2.54,1.14,2.54,2.54v1.89C276.16,410.55,275.03,411.69,273.63,411.69"/>
		</g>
	</g>
	<g>
		<g>
			<defs>
				<rect id="SVGID_00000137826813023067824590000009698289098940402867_" x="248.66" y="370.8" width="86.84" height="116.51"/>
			</defs>
			<clipPath id="SVGID_00000096056725601116228600000014553241995311327922_">
				<use xlink:href="#SVGID_00000137826813023067824590000009698289098940402867_"  style="overflow:visible;"/>
			</clipPath>
			<path style="clip-path:url(#SVGID_00000096056725601116228600000014553241995311327922_);fill:#008D36;" d="M281.02,406.49
				c-0.43,0-0.77,0.35-0.77,0.77v1.89c0,0.43,0.35,0.77,0.77,0.77s0.77-0.35,0.77-0.77v-1.89
				C281.79,406.84,281.45,406.49,281.02,406.49 M281.02,411.69c-1.4,0-2.54-1.14-2.54-2.54v-1.89c0-1.4,1.14-2.54,2.54-2.54
				s2.54,1.14,2.54,2.54v1.89C283.56,410.55,282.42,411.69,281.02,411.69"/>
		</g>
	</g>
	<g>
		<g>
			<defs>
				<rect id="SVGID_00000010303029947900828840000015086546434765659282_" x="248.66" y="370.8" width="86.84" height="116.51"/>
			</defs>
			<clipPath id="SVGID_00000178920802527430428120000004121390517050676629_">
				<use xlink:href="#SVGID_00000010303029947900828840000015086546434765659282_"  style="overflow:visible;"/>
			</clipPath>
			<path style="clip-path:url(#SVGID_00000178920802527430428120000004121390517050676629_);fill:#008D36;" d="M288.42,406.49
				c-0.43,0-0.77,0.35-0.77,0.77v1.89c0,0.43,0.35,0.77,0.77,0.77s0.77-0.35,0.77-0.77v-1.89
				C289.19,406.84,288.84,406.49,288.42,406.49 M288.42,411.69c-1.4,0-2.54-1.14-2.54-2.54v-1.89c0-1.4,1.14-2.54,2.54-2.54
				s2.54,1.14,2.54,2.54v1.89C290.95,410.55,289.81,411.69,288.42,411.69"/>
		</g>
	</g>
	<g>
		<g>
			<defs>
				<rect id="SVGID_00000099649159141583622150000006325251039595880612_" x="248.66" y="370.8" width="86.84" height="116.51"/>
			</defs>
			<clipPath id="SVGID_00000137118543715477762160000017424882966011893403_">
				<use xlink:href="#SVGID_00000099649159141583622150000006325251039595880612_"  style="overflow:visible;"/>
			</clipPath>
			<path style="clip-path:url(#SVGID_00000137118543715477762160000017424882966011893403_);fill:#008D36;" d="M295.81,406.49
				c-0.43,0-0.77,0.35-0.77,0.77v1.89c0,0.43,0.35,0.77,0.77,0.77s0.77-0.35,0.77-0.77v-1.89
				C296.58,406.84,296.24,406.49,295.81,406.49 M295.81,411.69c-1.4,0-2.54-1.14-2.54-2.54v-1.89c0-1.4,1.14-2.54,2.54-2.54
				s2.54,1.14,2.54,2.54v1.89C298.35,410.55,297.21,411.69,295.81,411.69"/>
		</g>
	</g>
	<g>
		<g>
			<defs>
				<rect id="SVGID_00000021080253542772727030000007600943544281045682_" x="248.66" y="370.8" width="86.84" height="116.51"/>
			</defs>
			<clipPath id="SVGID_00000133523136547707793000000016104516041227554979_">
				<use xlink:href="#SVGID_00000021080253542772727030000007600943544281045682_"  style="overflow:visible;"/>
			</clipPath>
			<path style="clip-path:url(#SVGID_00000133523136547707793000000016104516041227554979_);fill:#008D36;" d="M303.21,406.49
				c-0.43,0-0.77,0.35-0.77,0.77v1.89c0,0.43,0.35,0.77,0.77,0.77c0.43,0,0.77-0.35,0.77-0.77v-1.89
				C303.98,406.84,303.63,406.49,303.21,406.49 M303.21,411.69c-1.4,0-2.54-1.14-2.54-2.54v-1.89c0-1.4,1.14-2.54,2.54-2.54
				s2.54,1.14,2.54,2.54v1.89C305.74,410.55,304.6,411.69,303.21,411.69"/>
		</g>
	</g>
	<g>
		<g>
			<defs>
				<rect id="SVGID_00000094620588581478159270000015228902662706123157_" x="248.66" y="370.8" width="86.84" height="116.51"/>
			</defs>
			<clipPath id="SVGID_00000164471610251317750960000004865238392314782654_">
				<use xlink:href="#SVGID_00000094620588581478159270000015228902662706123157_"  style="overflow:visible;"/>
			</clipPath>
			<path style="clip-path:url(#SVGID_00000164471610251317750960000004865238392314782654_);fill:#008D36;" d="M310.6,406.49
				c-0.43,0-0.77,0.35-0.77,0.77v1.89c0,0.43,0.35,0.77,0.77,0.77s0.77-0.35,0.77-0.77v-1.89
				C311.37,406.84,311.03,406.49,310.6,406.49 M310.6,411.69c-1.4,0-2.54-1.14-2.54-2.54v-1.89c0-1.4,1.14-2.54,2.54-2.54
				s2.54,1.14,2.54,2.54v1.89C313.14,410.55,312,411.69,310.6,411.69"/>
		</g>
	</g>
	<g>
		<g>
			<defs>
				<rect id="SVGID_00000170240752792202935370000003693992849957196176_" x="248.66" y="370.8" width="86.84" height="116.51"/>
			</defs>
			<clipPath id="SVGID_00000067206881411010589720000007688297855080227985_">
				<use xlink:href="#SVGID_00000170240752792202935370000003693992849957196176_"  style="overflow:visible;"/>
			</clipPath>
			<path style="clip-path:url(#SVGID_00000067206881411010589720000007688297855080227985_);fill:#008D36;" d="M317.99,406.49
				c-0.43,0-0.77,0.35-0.77,0.77v1.89c0,0.43,0.35,0.77,0.77,0.77s0.77-0.35,0.77-0.77v-1.89
				C318.77,406.84,318.42,406.49,317.99,406.49 M317.99,411.69c-1.4,0-2.54-1.14-2.54-2.54v-1.89c0-1.4,1.14-2.54,2.54-2.54
				s2.54,1.14,2.54,2.54v1.89C320.53,410.55,319.39,411.69,317.99,411.69"/>
		</g>
	</g>
</g>
</svg>
