<?xml version="1.0" encoding="utf-8"?>
<!-- Generator: Adobe Illustrator 26.5.0, SVG Export Plug-In . SVG Version: 6.00 Build 0)  -->
<svg version="1.1" id="Calque_1" xmlns="http://www.w3.org/2000/svg" xmlns:xlink="http://www.w3.org/1999/xlink" x="0px" y="0px"
	 viewBox="0 0 595.28 841.89" style="enable-background:new 0 0 595.28 841.89;" xml:space="preserve">
<style type="text/css">
	.st0{fill:#FFFFFF;}
	.st1{fill:#008D36;}
</style>
<circle class="st0" cx="291.86" cy="414.88" r="43.28"/>
<g>
	<g>
		<path class="st0" d="M320.15,479.76v7.37h4.16v-1.17h-2.94v-2h2.64v-1.1h-2.64v-1.93h2.94v-1.17L320.15,479.76L320.15,479.76z
			 M319.02,483.86c0-0.29-0.02-0.54-0.06-0.74h-3.5v1.05h2.28c-0.02,0.58-0.24,1.04-0.63,1.39c-0.4,0.35-0.9,0.53-1.49,0.53
			c-0.47,0-0.88-0.11-1.22-0.33s-0.61-0.52-0.79-0.92c-0.18-0.4-0.28-0.86-0.28-1.38c0-0.52,0.09-0.97,0.28-1.37
			c0.18-0.4,0.44-0.71,0.78-0.93s0.73-0.33,1.18-0.33c0.51,0,0.95,0.13,1.29,0.38c0.35,0.26,0.59,0.6,0.7,1.04l1.18-0.49
			c-0.11-0.42-0.32-0.8-0.62-1.12c-0.3-0.33-0.67-0.58-1.1-0.76c-0.43-0.18-0.9-0.27-1.41-0.27c-0.7,0-1.33,0.16-1.88,0.48
			c-0.55,0.32-0.97,0.77-1.27,1.35c-0.3,0.58-0.45,1.26-0.45,2.03c0,0.76,0.15,1.43,0.44,2c0.3,0.58,0.71,1.02,1.26,1.34
			c0.54,0.32,1.17,0.48,1.89,0.48c0.68,0,1.29-0.14,1.8-0.43c0.51-0.29,0.91-0.69,1.19-1.21
			C318.88,485.13,319.02,484.54,319.02,483.86 M309.4,484.58h-2.07l0.6-1.79c0.03-0.07,0.05-0.14,0.07-0.2
			c0.22-0.67,0.34-1.06,0.36-1.18c0.04,0.17,0.18,0.63,0.44,1.38L309.4,484.58z M309.78,485.7l0.48,1.43h1.45l-2.68-7.37h-1.32
			l-2.68,7.37h1.44l0.49-1.43H309.78z M304.19,479.76h-1.22v3.18h-3.17v-3.18h-1.22v7.37h1.22v-3.02h3.17v3.02h1.22V479.76z
			 M292.43,486.8c0.53,0.32,1.14,0.48,1.83,0.48c0.53,0,1.02-0.09,1.47-0.29c0.45-0.19,0.83-0.46,1.13-0.81
			c0.3-0.35,0.51-0.74,0.62-1.2l-1.22-0.44c-0.11,0.46-0.35,0.82-0.71,1.09s-0.79,0.41-1.27,0.41c-0.43,0-0.81-0.11-1.14-0.33
			c-0.33-0.21-0.6-0.52-0.78-0.91c-0.19-0.39-0.28-0.85-0.28-1.37s0.09-0.97,0.28-1.36c0.18-0.39,0.44-0.7,0.78-0.92
			c0.33-0.21,0.71-0.32,1.14-0.32c0.48,0,0.9,0.14,1.27,0.41c0.36,0.27,0.6,0.63,0.71,1.09l1.22-0.44
			c-0.12-0.46-0.34-0.86-0.64-1.21c-0.3-0.35-0.68-0.61-1.12-0.8s-0.93-0.28-1.44-0.28c-0.68,0-1.29,0.16-1.83,0.48
			c-0.54,0.32-0.95,0.77-1.25,1.35c-0.3,0.58-0.45,1.25-0.45,2.01c0,0.75,0.15,1.42,0.44,2C291.48,486.03,291.9,486.48,292.43,486.8
			 M288.44,487.13h1.19v-7.37h-1.19V487.13z M289.45,479.28h1.02l-0.98-1.52h-0.93l-0.98,1.52h1.01l0.43-0.82L289.45,479.28z
			 M285.3,484.58h-2.07l0.6-1.79c0.02-0.07,0.05-0.14,0.07-0.2c0.22-0.67,0.34-1.06,0.36-1.18c0.04,0.17,0.18,0.63,0.44,1.38
			L285.3,484.58z M285.67,485.7l0.48,1.43h1.45l-2.68-7.37h-1.32l-2.68,7.37h1.44l0.49-1.43H285.67z M276.15,483.42v-2.49h1.67
			c0.41,0,0.73,0.11,0.96,0.33c0.23,0.22,0.34,0.52,0.34,0.89c0,0.37-0.11,0.67-0.33,0.91c-0.23,0.24-0.55,0.36-0.96,0.36H276.15z
			 M280.06,483.4c0.21-0.36,0.31-0.79,0.31-1.27c0-0.46-0.1-0.88-0.3-1.24c-0.2-0.36-0.49-0.64-0.86-0.84s-0.8-0.3-1.3-0.3h-2.99
			v7.37h1.22v-2.62h1.76h0.05l1.01,2.62h1.36l-1.17-2.89C279.55,484.05,279.85,483.77,280.06,483.4 M271.79,484.58h-2.07l0.6-1.79
			c0.03-0.07,0.05-0.14,0.07-0.2c0.22-0.67,0.34-1.06,0.36-1.18c0.04,0.17,0.18,0.63,0.44,1.38L271.79,484.58z M272.17,485.7
			l0.48,1.43h1.45l-2.68-7.37h-1.32l-2.68,7.37h1.44l0.49-1.43H272.17z M259.65,479.76v7.37h1.23v-2.97c0-0.67-0.02-1.2-0.04-1.58
			l1.69,4.55h1.18l1.69-4.57c-0.04,0.38-0.05,0.91-0.05,1.61v2.97h1.23v-7.36l-1.23-0.01l-2.23,5.83l-2.25-5.83L259.65,479.76
			L259.65,479.76z"/>
		<path class="st0" d="M327.47,467.67v7.37h4.16v-1.17h-2.94v-2h2.64v-1.1h-2.64v-1.93h2.94v-1.17L327.47,467.67L327.47,467.67z
			 M322.1,471.32v-2.49h1.67c0.41,0,0.73,0.11,0.96,0.33c0.23,0.22,0.34,0.52,0.34,0.89c0,0.37-0.11,0.67-0.33,0.91
			c-0.23,0.24-0.55,0.36-0.96,0.36H322.1z M326.01,471.31c0.21-0.36,0.32-0.79,0.32-1.26c0-0.46-0.1-0.88-0.3-1.24
			c-0.2-0.36-0.49-0.64-0.86-0.84c-0.37-0.2-0.8-0.3-1.3-0.3h-2.99v7.37h1.22v-2.62h1.76h0.05l1.01,2.62h1.36l-1.17-2.89
			C325.5,471.95,325.8,471.68,326.01,471.31 M313.99,467.67v4.67c0,0.57,0.11,1.06,0.34,1.49s0.55,0.76,0.97,1s0.91,0.35,1.47,0.35
			s1.04-0.12,1.46-0.35s0.74-0.57,0.96-1s0.33-0.93,0.33-1.49v-4.67h-1.21v4.55c0,0.55-0.14,0.98-0.41,1.3
			c-0.28,0.32-0.65,0.49-1.13,0.49c-0.47,0-0.84-0.16-1.12-0.47c-0.28-0.32-0.42-0.75-0.42-1.32v-4.55L313.99,467.67L313.99,467.67z
			 M313.12,468.83v-1.17h-5.3v1.17h2.05v6.2h1.22v-6.2H313.12z M308.08,473.86h-3.04v-6.2h-1.23v7.37h4.27L308.08,473.86
			L308.08,473.86z M296.93,467.67v4.67c0,0.57,0.11,1.06,0.34,1.49s0.55,0.76,0.97,1s0.91,0.35,1.47,0.35s1.04-0.12,1.46-0.35
			s0.74-0.57,0.96-1s0.33-0.93,0.33-1.49v-4.67h-1.21v4.55c0,0.55-0.14,0.98-0.41,1.3c-0.28,0.32-0.65,0.49-1.13,0.49
			c-0.47,0-0.84-0.16-1.12-0.47c-0.28-0.32-0.42-0.75-0.42-1.32v-4.55L296.93,467.67L296.93,467.67z M290.86,474.71
			c0.53,0.32,1.14,0.48,1.83,0.48c0.53,0,1.02-0.09,1.47-0.29c0.45-0.19,0.83-0.46,1.13-0.81c0.3-0.35,0.51-0.74,0.62-1.2
			l-1.22-0.44c-0.11,0.46-0.35,0.82-0.71,1.09s-0.79,0.41-1.27,0.41c-0.43,0-0.81-0.11-1.14-0.32c-0.33-0.21-0.6-0.52-0.78-0.91
			c-0.19-0.39-0.28-0.85-0.28-1.37s0.09-0.97,0.28-1.36c0.18-0.39,0.44-0.7,0.78-0.92c0.33-0.21,0.71-0.32,1.14-0.32
			c0.48,0,0.91,0.14,1.27,0.41s0.6,0.63,0.71,1.09l1.22-0.44c-0.12-0.46-0.33-0.86-0.64-1.2c-0.3-0.35-0.68-0.61-1.12-0.8
			s-0.93-0.28-1.44-0.28c-0.68,0-1.29,0.16-1.83,0.48c-0.54,0.32-0.95,0.77-1.25,1.35c-0.3,0.58-0.45,1.25-0.45,2.01
			c0,0.75,0.15,1.42,0.44,2C289.92,473.94,290.33,474.39,290.86,474.71 M286.87,475.03h1.19v-7.37h-1.19V475.03z M281.51,471.32
			v-2.49h1.67c0.41,0,0.73,0.11,0.96,0.33c0.23,0.22,0.34,0.52,0.34,0.89c0,0.37-0.11,0.67-0.33,0.91
			c-0.23,0.24-0.55,0.36-0.96,0.36H281.51z M285.42,471.31c0.21-0.36,0.32-0.79,0.32-1.26c0-0.46-0.1-0.88-0.3-1.24
			c-0.2-0.36-0.49-0.64-0.86-0.84c-0.37-0.2-0.8-0.3-1.3-0.3h-2.99v7.37h1.22v-2.62h1.76h0.05l1.01,2.62h1.36l-1.17-2.89
			C284.91,471.95,285.21,471.68,285.42,471.31 M276.72,473.62c-0.35,0.22-0.76,0.33-1.22,0.33c-0.45,0-0.85-0.11-1.21-0.33
			s-0.63-0.53-0.83-0.93c-0.2-0.4-0.3-0.85-0.3-1.35s0.1-0.95,0.3-1.34c0.2-0.39,0.47-0.7,0.83-0.92s0.76-0.33,1.21-0.33
			c0.46,0,0.87,0.11,1.22,0.33s0.62,0.53,0.83,0.92c0.2,0.39,0.3,0.84,0.3,1.35s-0.1,0.97-0.3,1.36
			C277.34,473.1,277.07,473.4,276.72,473.62 M273.59,474.7c0.56,0.33,1.19,0.5,1.9,0.5s1.35-0.17,1.91-0.5s0.99-0.79,1.31-1.38
			c0.31-0.59,0.47-1.24,0.47-1.97c0-0.72-0.15-1.38-0.46-1.96s-0.75-1.04-1.3-1.38c-0.56-0.33-1.19-0.5-1.9-0.5
			c-0.72,0-1.36,0.17-1.92,0.5c-0.56,0.33-0.99,0.79-1.3,1.38s-0.46,1.24-0.46,1.96c0,0.73,0.15,1.39,0.46,1.98
			S273.03,474.37,273.59,474.7 M269.45,473.59c-0.19,0.18-0.45,0.27-0.78,0.27h-1.6v-2h1.61c0.32,0,0.58,0.09,0.77,0.27
			s0.28,0.43,0.28,0.74C269.73,473.17,269.64,473.41,269.45,473.59 M267.06,470.81v-1.98h1.41c0.32,0,0.58,0.09,0.77,0.27
			s0.28,0.43,0.28,0.73c0,0.3-0.09,0.53-0.27,0.71c-0.19,0.18-0.44,0.27-0.76,0.27L267.06,470.81L267.06,470.81z M270.41,474.48
			c0.41-0.37,0.61-0.87,0.6-1.5c0-0.38-0.08-0.72-0.25-1.01s-0.41-0.52-0.74-0.67c0.26-0.15,0.47-0.36,0.61-0.63
			c0.14-0.26,0.22-0.57,0.22-0.93c0-0.62-0.2-1.11-0.6-1.49c-0.4-0.37-0.96-0.57-1.65-0.57h-2.76v7.36h2.89
			C269.45,475.03,270,474.85,270.41,474.48 M260.48,471.32v-2.49h1.67c0.41,0,0.73,0.11,0.96,0.33c0.23,0.22,0.34,0.52,0.34,0.89
			c0,0.37-0.11,0.67-0.33,0.91c-0.23,0.24-0.55,0.36-0.96,0.36H260.48z M264.39,471.31c0.21-0.36,0.31-0.79,0.31-1.26
			c0-0.46-0.1-0.88-0.3-1.24c-0.2-0.36-0.49-0.64-0.86-0.84s-0.8-0.3-1.3-0.3h-2.99v7.37h1.22v-2.62h1.76h0.05l1.01,2.62h1.36
			l-1.17-2.89C263.87,471.95,264.17,471.68,264.39,471.31 M256.12,472.49h-2.07l0.6-1.79c0.02-0.07,0.05-0.14,0.07-0.2
			c0.22-0.67,0.34-1.06,0.36-1.18c0.03,0.17,0.18,0.63,0.44,1.38L256.12,472.49z M256.49,473.6l0.48,1.43h1.45l-2.68-7.37h-1.32
			l-2.68,7.37h1.44l0.49-1.43H256.49z"/>
	</g>
</g>
<g>
	<g>
		<path class="st1" d="M276.99,417.36c-0.03,0-0.06,0-0.09-0.01c-0.42-0.05-0.72-0.44-0.67-0.86c0.72-5.67,0.13-9.83-0.49-14.24
			c-0.5-3.64-1.04-7.4-0.95-12.37c0.01-0.42,0.35-0.76,0.77-0.76h0.01c0.43,0.01,0.77,0.36,0.76,0.79
			c-0.08,4.85,0.43,8.55,0.94,12.12c0.63,4.51,1.23,8.77,0.48,14.64C277.71,417.08,277.38,417.36,276.99,417.36"/>
		<path class="st1" d="M277.32,412.99c-0.09,0-0.18-0.02-0.28-0.05c-0.4-0.15-0.6-0.6-0.43-1c1.35-3.45,3.35-4.77,5.11-5.94
			c1.66-1.1,2.97-1.97,3.44-4.48c0.07-0.42,0.47-0.7,0.9-0.62c0.42,0.08,0.7,0.48,0.62,0.9c-0.59,3.15-2.37,4.34-4.1,5.49
			c-1.65,1.09-3.35,2.23-4.53,5.22C277.91,412.8,277.63,412.99,277.32,412.99"/>
		<path class="st1" d="M276.81,405.18c-0.29,0-0.58-0.17-0.7-0.46c-1.33-3.05-3.55-3.6-5.92-4.19c-2.08-0.51-4.24-1.05-5.41-3.41
			c-0.19-0.38-0.03-0.85,0.35-1.04s0.85-0.04,1.04,0.35c0.85,1.72,2.49,2.12,4.39,2.59c2.49,0.62,5.33,1.32,6.96,5.07
			c0.18,0.39-0.01,0.85-0.4,1.01C277.03,405.16,276.91,405.18,276.81,405.18"/>
		<path class="st1" d="M272.9,409.3c0.18,0.68,0.57,1.7,1.38,2.2c0.55,0.34,1.25,0.41,2.09,0.2c-0.33-0.95-0.84-1.62-1.51-2.01
			C274.19,409.3,273.43,409.26,272.9,409.3 M275.47,413.37c-0.74,0-1.41-0.19-2.01-0.56c-1.94-1.21-2.22-3.95-2.23-4.07
			c-0.03-0.36,0.18-0.7,0.54-0.81c0.08-0.03,2.06-0.62,3.86,0.41c1.23,0.7,2.05,1.94,2.45,3.69c0.09,0.38-0.11,0.76-0.48,0.9
			C276.84,413.22,276.13,413.37,275.47,413.37"/>
		<path class="st1" d="M280.7,402.14c-0.34,0.54-0.76,1.41-0.58,2.24c0.12,0.58,0.55,1.1,1.26,1.53c0.43-0.87,0.55-1.65,0.34-2.34
			C281.52,402.9,281.07,402.43,280.7,402.14 M281.69,407.72c-0.1,0-0.22-0.02-0.32-0.07c-1.57-0.71-2.49-1.71-2.76-2.96
			c-0.44-2.1,1.26-4.03,1.33-4.11c0.23-0.26,0.6-0.33,0.91-0.18c0.07,0.04,1.81,0.88,2.36,2.74c0.38,1.3,0.09,2.71-0.86,4.22
			C282.2,407.59,281.94,407.72,281.69,407.72"/>
		<path class="st1" d="M289.26,396.62c-1.06,0.4-2.8,1.48-2.66,4.2c0.91-0.13,1.59-0.49,2.02-1.06
			C289.33,398.82,289.34,397.47,289.26,396.62 M285.91,402.42c-0.37,0-0.7-0.27-0.76-0.65c-0.74-4.71,2.69-6.57,4.61-6.89
			c0.4-0.07,0.78,0.18,0.88,0.57c0.04,0.13,0.78,3.2-0.78,5.25c-0.85,1.11-2.17,1.69-3.92,1.73h-0.03L285.91,402.42L285.91,402.42z"
			/>
		<path class="st1" d="M271.31,393.92c-0.46,0.78-1.09,2.14-0.8,3.4c0.18,0.77,0.69,1.43,1.55,1.97
			C273.45,396.65,272.15,394.77,271.31,393.92 M272.33,401.09c-0.11,0-0.24-0.03-0.34-0.08c-1.66-0.8-2.67-1.94-2.99-3.37
			c-0.6-2.65,1.46-5.25,1.55-5.36c0.26-0.32,0.71-0.38,1.04-0.15c1.69,1.15,4.16,4.44,1.38,8.62
			C272.82,400.97,272.58,401.09,272.33,401.09"/>
		<path class="st1" d="M276.79,396.65c0.98,0.19,1.79,0.06,2.44-0.38c1.06-0.72,1.54-2.11,1.73-3
			C279.76,393.31,277.57,393.78,276.79,396.65 M277.63,398.28c-0.62,0-1.28-0.11-1.99-0.33c-0.37-0.12-0.59-0.49-0.53-0.87
			c0.84-4.91,4.86-5.61,6.86-5.29c0.39,0.06,0.68,0.42,0.65,0.82c-0.01,0.14-0.3,3.43-2.54,4.94
			C279.39,398.04,278.56,398.28,277.63,398.28"/>
		<path class="st1" d="M272.12,384.48c-0.11,0.9-0.15,2.37,0.6,3.4c0.46,0.63,1.2,1.03,2.16,1.19
			C275.13,386.12,273.22,384.92,272.12,384.48 M275.55,390.68h-0.03c-1.83-0.08-3.2-0.72-4.05-1.9c-1.59-2.18-0.73-5.37-0.69-5.5
			c0.1-0.39,0.49-0.63,0.89-0.55c1.99,0.39,5.53,2.42,4.64,7.32C276.24,390.41,275.92,390.68,275.55,390.68"/>
		<path class="st1" d="M267.99,420.89h16.9c-0.42-1.4-1.62-2.14-2.7-2.37c-0.95-0.2-1.71,0.01-1.88,0.32
			c-0.14,0.27-0.41,0.42-0.72,0.4c-0.31-0.01-0.57-0.21-0.68-0.48c-0.3-0.76-1.28-1.32-2.42-1.39c-1.31-0.08-2.43,0.47-3,1.49
			c-0.11,0.2-0.32,0.35-0.56,0.39c-0.24,0.03-0.47-0.04-0.65-0.2c-0.45-0.43-1.51-0.48-2.43-0.11
			C269.38,419.13,268.37,419.66,267.99,420.89 M285.82,422.44h-18.75c-0.22,0-0.42-0.09-0.57-0.24s-0.22-0.36-0.21-0.57
			c0.11-1.87,1.23-3.41,2.98-4.12c1.17-0.47,2.4-0.48,3.33-0.07c0.93-1.12,2.38-1.71,3.99-1.6c1.32,0.09,2.48,0.63,3.2,1.46
			c0.69-0.39,1.67-0.5,2.71-0.28c1.75,0.37,3.86,1.79,4.08,4.59c0.01,0.21-0.06,0.43-0.21,0.58
			C286.24,422.35,286.03,422.44,285.82,422.44"/>
		<path class="st1" d="M286.7,407.93c-0.36,0-0.68-0.25-0.76-0.62c-0.09-0.49-0.56-1.99-1.37-2.4c-0.38-0.19-0.54-0.66-0.35-1.04
			c0.2-0.38,0.66-0.54,1.04-0.34c1.64,0.83,2.14,3.22,2.21,3.49c0.08,0.42-0.2,0.82-0.61,0.9
			C286.81,407.92,286.76,407.93,286.7,407.93"/>
		<path class="st1" d="M285.13,408c-0.41,0.09-0.75,0.36-0.88,0.71c-0.28,0.72-0.28,1.5,0.01,2.24c0.43,1.12,1.54,1.91,2.73,1.95
			c0.98,0.04,1.87-0.33,2.49-1.05c0.62-0.71,0.89-1.64,0.73-2.57c-0.07-0.49-0.27-0.94-0.57-1.33c-0.27-0.36-0.71-0.55-1.16-0.5
			c-0.25,0.1-0.86,0.33-1.64,0.47C286.05,408.04,285.4,408.02,285.13,408 M287.12,414.45c-0.06,0-0.12,0-0.19,0
			c-1.8-0.07-3.45-1.25-4.11-2.94c-0.42-1.11-0.43-2.27-0.01-3.35c0.33-0.88,1.15-1.53,2.14-1.69c0.07-0.01,0.14-0.01,0.22-0.01
			c0,0,0.63,0.06,1.42-0.07s1.35-0.39,1.35-0.39c0.07-0.03,0.14-0.05,0.21-0.06c1.05-0.18,2.1,0.24,2.74,1.09
			c0.45,0.6,0.74,1.27,0.87,2.01c0.23,1.39-0.18,2.79-1.11,3.84C289.75,413.88,288.48,414.45,287.12,414.45"/>
		<path class="st1" d="M266.71,402.97c-0.05,0-0.09,0-0.14-0.01c-0.42-0.08-0.69-0.49-0.61-0.91c0.05-0.27,0.56-2.66,2.2-3.48
			c0.38-0.19,0.84-0.04,1.04,0.34c0.19,0.38,0.03,0.85-0.35,1.04c-0.81,0.41-1.28,1.91-1.37,2.4
			C267.4,402.72,267.07,402.97,266.71,402.97"/>
		<path class="st1" d="M264.98,402.51c-0.35,0-0.67,0.13-0.88,0.37c-0.51,0.58-0.78,1.31-0.77,2.1c0.01,1.2,0.76,2.32,1.86,2.78
			c0.91,0.38,1.87,0.34,2.71-0.11c0.83-0.44,1.41-1.23,1.59-2.15c0.1-0.49,0.07-0.97-0.06-1.45c-0.13-0.43-0.47-0.77-0.92-0.88
			c-0.27,0.01-0.92,0.01-1.7-0.14c-0.79-0.15-1.4-0.4-1.65-0.52C265.1,402.51,265.04,402.51,264.98,402.51 M266.45,409.57
			c-0.63,0-1.26-0.12-1.86-0.38c-1.66-0.7-2.79-2.38-2.81-4.19c-0.01-1.19,0.38-2.28,1.15-3.15c0.63-0.7,1.63-1.02,2.61-0.83
			c0.07,0.02,0.14,0.04,0.21,0.07c0,0,0.56,0.28,1.35,0.43c0.79,0.16,1.4,0.11,1.41,0.11c0.07-0.01,0.14,0,0.21,0.01
			c1.05,0.21,1.89,0.96,2.18,1.98c0.22,0.72,0.25,1.45,0.11,2.18c-0.28,1.38-1.14,2.55-2.38,3.22
			C267.96,409.38,267.21,409.57,266.45,409.57"/>
		<path class="st1" d="M295.82,423.15c-0.45,0-0.83-0.34-0.87-0.79c-0.11-1.36,0.23-2.31,1.13-3.09c0.36-0.32,0.91-0.28,1.23,0.09
			c0.31,0.36,0.26,0.91-0.09,1.23c-0.42,0.36-0.61,0.71-0.54,1.63c0.04,0.48-0.31,0.9-0.79,0.94
			C295.86,423.15,295.84,423.15,295.82,423.15"/>
		<path class="st1" d="M293.16,425.89c-0.35,0-0.67-0.21-0.81-0.55c-0.9-2.31-0.75-4.47-0.54-5.27l-0.02-0.01
			c0.42-1.72,1.24-2.92,2.44-3.57c1.78-0.95,3.68-0.27,3.76-0.24c1.18,0.32,1.68,0.34,1.69,0.34h0.14c0.03,0,0.55-0.01,1.75-0.36
			c0.11-0.03,2.83-0.8,4.74,0.95c0.04,0.03,1.81,1.48,2,3.47c0.11,0.17,0.61,0.63,1.62,1.14c0.42,0.22,0.59,0.74,0.37,1.17
			c-0.21,0.43-0.75,0.6-1.17,0.38c-1.12-0.57-2.46-1.47-2.55-2.48c-0.09-1.28-1.4-2.36-1.41-2.37c-1.22-1.11-3.11-0.61-3.13-0.6
			c-1.48,0.43-2.15,0.42-2.27,0.42h-0.11c-0.1-0.01-0.73-0.01-2.21-0.42c-0.07-0.02-1.34-0.46-2.42,0.13
			c-0.74,0.4-1.27,1.22-1.55,2.42c-0.03,0.13-0.38,2.05,0.48,4.24c0.18,0.45-0.04,0.95-0.49,1.13
			C293.38,425.87,293.27,425.89,293.16,425.89"/>
		<path class="st1" d="M300,417.87c-0.03,0-0.05,0-0.08,0c-0.48-0.04-0.83-0.46-0.79-0.94c0.16-1.83-1.3-2.76-1.31-2.77
			c-0.41-0.26-0.53-0.79-0.28-1.2s0.79-0.53,1.2-0.28c0.09,0.06,2.37,1.51,2.12,4.39C300.81,417.53,300.43,417.87,300,417.87"/>
		<path class="st1" d="M312.81,415.38c-0.04,0-0.08,0-0.12-0.01c-0.48-0.07-0.81-0.51-0.74-0.99l0.44-3.07
			c0.07-0.48,0.5-0.81,0.98-0.74s0.81,0.51,0.74,0.98l-0.44,3.07C313.6,415.06,313.23,415.38,312.81,415.38"/>
		<path class="st1" d="M315.31,416.76c-0.25,0-0.5-0.11-0.67-0.33c-0.3-0.37-0.24-0.92,0.13-1.22l2.35-1.9
			c0.38-0.3,0.92-0.24,1.23,0.13c0.3,0.37,0.24,0.92-0.13,1.22l-2.35,1.9C315.7,416.7,315.51,416.76,315.31,416.76"/>
		<path class="st1" d="M314.08,415.91c-0.15,0-0.3-0.04-0.44-0.12c-0.41-0.24-0.55-0.77-0.32-1.19l2.2-3.81
			c0.23-0.41,0.77-0.56,1.18-0.32c0.42,0.24,0.56,0.77,0.32,1.19l-2.2,3.81C314.68,415.75,314.38,415.91,314.08,415.91"/>
		<path class="st1" d="M312.66,425.64l-1.35-1.1c2.48-3.02,4.2-5.74,4.22-5.77c0.15-0.26,0.2-0.53,0.11-0.83
			c-0.24-0.9-1.45-1.75-1.89-2l-0.34-0.18c-0.44-0.22-1.82-0.75-2.7-0.46c-0.29,0.1-0.49,0.28-0.63,0.58
			c-0.01,0.02-1.97,4.47-3.19,9.35l-1.69-0.42c1.25-5.03,3.21-9.47,3.29-9.66c0.36-0.74,0.93-1.25,1.67-1.5
			c1.73-0.58,3.82,0.45,4.06,0.57l0.36,0.19c0.24,0.14,2.27,1.31,2.74,3.07c0.2,0.75,0.1,1.51-0.31,2.19
			C316.94,419.81,315.2,422.54,312.66,425.64"/>
		<path class="st1" d="M311.16,419.26c-0.12,0-0.25-0.03-0.37-0.08c-1.57-0.74-2.47-2.02-2.51-2.08c-0.28-0.39-0.17-0.94,0.21-1.21
			c0.4-0.27,0.93-0.18,1.21,0.21c0.02,0.02,0.7,0.96,1.84,1.5c0.43,0.2,0.61,0.72,0.41,1.16
			C311.8,419.08,311.49,419.26,311.16,419.26"/>
		<path class="st1" d="M313.84,422.84c-0.04,0-0.09,0-0.13-0.01c-1.2-0.18-2.3-0.96-2.42-1.05c-0.39-0.28-0.47-0.82-0.2-1.21
			c0.29-0.39,0.83-0.47,1.22-0.19c0.23,0.17,1,0.64,1.67,0.74c0.47,0.07,0.8,0.52,0.73,0.99
			C314.64,422.53,314.26,422.84,313.84,422.84"/>
	</g>
	<polygon class="st1" points="286.94,424.26 286.94,431.16 288.67,431.16 288.67,426 318.05,426 318.05,431.16 319.79,431.16 
		319.79,424.26 	"/>
	<polygon class="st1" points="286.94,430.27 286.94,437.17 288.67,437.17 288.67,432.01 318.05,432.01 318.05,437.17 319.79,437.17 
		319.79,430.27 	"/>
	<path class="st1" d="M288.67,437.54h29.39v4.29h-29.39L288.67,437.54L288.67,437.54z M286.94,443.58h32.85v-7.77h-32.85V443.58z"/>
	<g>
		<path class="st1" d="M292.45,427.89c-0.21,0-0.37,0.17-0.37,0.37c0,0.21,0.16,0.37,0.37,0.37c0.2,0,0.38-0.17,0.38-0.37
			C292.83,428.06,292.65,427.89,292.45,427.89 M292.45,429.27c-0.55,0-1-0.45-1-1s0.45-1,1-1s1,0.45,1,1
			C293.45,428.82,293,429.27,292.45,429.27"/>
		<path class="st1" d="M315.18,427.89c-0.2,0-0.37,0.17-0.37,0.37c0,0.21,0.16,0.37,0.37,0.37c0.2,0,0.38-0.17,0.38-0.37
			C315.56,428.06,315.38,427.89,315.18,427.89 M315.18,429.27c-0.55,0-1-0.45-1-1s0.45-1,1-1s1,0.45,1,1
			C316.18,428.82,315.73,429.27,315.18,429.27"/>
		<path class="st1" d="M292.45,439.32c-0.21,0-0.37,0.17-0.37,0.37c0,0.21,0.16,0.37,0.37,0.37c0.2,0,0.38-0.17,0.38-0.37
			C292.83,439.48,292.65,439.32,292.45,439.32 M292.45,440.69c-0.55,0-1-0.45-1-1s0.45-1,1-1s1,0.45,1,1S293,440.69,292.45,440.69"
			/>
		<path class="st1" d="M315.18,439.32c-0.2,0-0.37,0.17-0.37,0.37c0,0.21,0.16,0.37,0.37,0.37c0.2,0,0.38-0.17,0.38-0.37
			C315.56,439.48,315.38,439.32,315.18,439.32 M315.18,440.69c-0.55,0-1-0.45-1-1s0.45-1,1-1s1,0.45,1,1
			S315.73,440.69,315.18,440.69"/>
		<path class="st1" d="M292.45,433.5c-0.21,0-0.37,0.17-0.37,0.37c0,0.21,0.16,0.37,0.37,0.37c0.2,0,0.38-0.17,0.38-0.37
			C292.83,433.66,292.65,433.5,292.45,433.5 M292.45,434.87c-0.55,0-1-0.45-1-1s0.45-1,1-1s1,0.45,1,1
			C293.45,434.42,293,434.87,292.45,434.87"/>
		<path class="st1" d="M315.18,433.5c-0.2,0-0.37,0.17-0.37,0.37c0,0.21,0.16,0.37,0.37,0.37c0.2,0,0.38-0.17,0.38-0.37
			C315.56,433.66,315.38,433.5,315.18,433.5 M315.18,434.87c-0.55,0-1-0.45-1-1s0.45-1,1-1s1,0.45,1,1
			C316.18,434.42,315.73,434.87,315.18,434.87"/>
	</g>
</g>
</svg>
