<?xml version="1.0" encoding="utf-8"?>
<!-- Generator: Adobe Illustrator 26.5.0, SVG Export Plug-In . SVG Version: 6.00 Build 0)  -->
<svg version="1.1" id="Calque_1" xmlns="http://www.w3.org/2000/svg" xmlns:xlink="http://www.w3.org/1999/xlink" x="0px" y="0px"
	 viewBox="0 0 595.28 841.89" style="enable-background:new 0 0 595.28 841.89;" xml:space="preserve">
<style type="text/css">
	.st0{clip-path:url(#SVGID_00000046335140207530442790000004173523686990560697_);fill:#FFFFFF;}
	.st1{clip-path:url(#SVGID_00000034065130902859088270000004066450454957152672_);fill:#FFFFFF;}
	.st2{clip-path:url(#SVGID_00000120537759793984700520000011986786305501887885_);fill:#008D36;}
	.st3{clip-path:url(#SVGID_00000047051367964138332430000012682089420298135959_);fill:#008D36;}
	.st4{clip-path:url(#SVGID_00000132083625643053925160000008055346842272616626_);fill:#008D36;}
</style>
<g>
	<g>
		<g>
			<defs>
				<rect id="SVGID_1_" x="248.23" y="371.03" width="86.84" height="104.66"/>
			</defs>
			<clipPath id="SVGID_00000069389579407623028590000000538092527622823092_">
				<use xlink:href="#SVGID_1_"  style="overflow:visible;"/>
			</clipPath>
			<path style="clip-path:url(#SVGID_00000069389579407623028590000000538092527622823092_);fill:#FFFFFF;" d="M325.77,474.12
				c-0.36,0.22-0.76,0.34-1.22,0.34c-0.45,0-0.85-0.11-1.21-0.34c-0.36-0.22-0.64-0.53-0.83-0.92c-0.2-0.4-0.3-0.85-0.3-1.35
				s0.1-0.95,0.3-1.34c0.2-0.39,0.47-0.7,0.83-0.93c0.35-0.22,0.76-0.33,1.21-0.33c0.46,0,0.87,0.11,1.22,0.33s0.62,0.53,0.83,0.92
				c0.2,0.39,0.29,0.84,0.29,1.35s-0.1,0.96-0.29,1.36C326.39,473.59,326.12,473.9,325.77,474.12 M322.64,475.19
				c0.56,0.34,1.19,0.5,1.9,0.5s1.35-0.17,1.9-0.5c0.56-0.33,0.99-0.79,1.31-1.38c0.31-0.59,0.47-1.24,0.47-1.97
				c0-0.72-0.15-1.38-0.46-1.96s-0.75-1.04-1.3-1.38c-0.56-0.33-1.19-0.5-1.9-0.5c-0.72,0-1.36,0.17-1.92,0.5
				c-0.56,0.34-0.99,0.79-1.3,1.38s-0.46,1.24-0.46,1.96c0,0.73,0.15,1.39,0.46,1.98S322.09,474.86,322.64,475.19 M318.57,475.53
				h1.19v-7.37h-1.19V475.53z M315.88,474.09c-0.19,0.18-0.45,0.27-0.78,0.27h-1.6v-2h1.61c0.32,0,0.58,0.09,0.77,0.27
				s0.29,0.43,0.29,0.74C316.17,473.67,316.07,473.91,315.88,474.09 M313.49,471.31v-1.98h1.41c0.32,0,0.58,0.09,0.77,0.27
				s0.29,0.43,0.29,0.73c0,0.3-0.09,0.53-0.27,0.71c-0.19,0.18-0.44,0.27-0.76,0.27L313.49,471.31L313.49,471.31z M316.84,474.98
				c0.41-0.37,0.61-0.87,0.6-1.5c0-0.38-0.08-0.72-0.25-1.01s-0.41-0.52-0.74-0.67c0.26-0.15,0.47-0.36,0.61-0.63
				c0.14-0.26,0.22-0.57,0.22-0.93c0-0.62-0.2-1.11-0.6-1.49c-0.4-0.37-0.96-0.57-1.65-0.57h-2.76v7.36h2.89
				C315.88,475.53,316.44,475.34,316.84,474.98 M307.33,470.25l1.2-0.32c-0.09-0.59-0.36-1.06-0.81-1.41
				c-0.45-0.34-1.02-0.52-1.7-0.52c-0.48,0-0.9,0.09-1.28,0.27s-0.67,0.44-0.88,0.77c-0.21,0.34-0.32,0.72-0.32,1.17
				c0,0.52,0.16,0.95,0.48,1.3c0.32,0.35,0.82,0.61,1.5,0.77l1.01,0.26c0.59,0.14,0.88,0.45,0.88,0.93c0,0.32-0.11,0.57-0.34,0.74
				c-0.23,0.18-0.55,0.27-0.95,0.27c-0.45,0-0.8-0.11-1.07-0.34c-0.27-0.22-0.4-0.52-0.42-0.88l-1.21,0.19
				c0.04,0.43,0.17,0.81,0.4,1.14c0.23,0.33,0.54,0.6,0.93,0.78c0.39,0.19,0.85,0.28,1.37,0.28s0.97-0.09,1.37-0.28
				c0.4-0.18,0.7-0.45,0.92-0.79c0.21-0.34,0.32-0.73,0.32-1.18c0-0.51-0.15-0.94-0.44-1.29c-0.3-0.35-0.75-0.61-1.34-0.76
				l-1.03-0.26c-0.35-0.09-0.61-0.22-0.78-0.36c-0.18-0.14-0.27-0.35-0.27-0.61c0-0.29,0.11-0.52,0.32-0.7
				c0.21-0.18,0.49-0.27,0.84-0.27c0.37,0,0.68,0.09,0.91,0.29C307.15,469.65,307.29,469.92,307.33,470.25 M298.41,471.82v-2.49
				h1.67c0.41,0,0.73,0.11,0.96,0.33c0.23,0.22,0.34,0.52,0.34,0.89c0,0.37-0.11,0.67-0.34,0.91s-0.55,0.36-0.96,0.36H298.41z
				 M302.32,471.81c0.21-0.36,0.31-0.79,0.31-1.27c0-0.46-0.1-0.88-0.3-1.24c-0.2-0.36-0.49-0.64-0.86-0.84s-0.8-0.3-1.3-0.3h-2.99
				v7.37h1.22v-2.62h1.76h0.05l1.01,2.62h1.36l-1.17-2.89C301.81,472.45,302.11,472.17,302.32,471.81 M290.3,468.16v4.67
				c0,0.57,0.11,1.06,0.34,1.49s0.55,0.76,0.97,1s0.91,0.35,1.47,0.35s1.04-0.12,1.46-0.35c0.42-0.24,0.74-0.57,0.96-1
				s0.33-0.92,0.33-1.49v-4.67h-1.22v4.55c0,0.55-0.14,0.98-0.41,1.3c-0.28,0.33-0.65,0.49-1.13,0.49c-0.47,0-0.84-0.16-1.12-0.47
				c-0.28-0.32-0.42-0.75-0.42-1.32v-4.55L290.3,468.16L290.3,468.16z M286.82,474.12c-0.35,0.22-0.76,0.34-1.22,0.34
				c-0.45,0-0.85-0.11-1.21-0.34c-0.36-0.22-0.64-0.53-0.83-0.92c-0.2-0.4-0.3-0.85-0.3-1.35s0.1-0.95,0.3-1.34
				c0.2-0.39,0.47-0.7,0.83-0.93c0.35-0.22,0.76-0.33,1.21-0.33c0.46,0,0.87,0.11,1.22,0.33s0.62,0.53,0.83,0.92
				c0.2,0.39,0.29,0.84,0.29,1.35s-0.1,0.96-0.29,1.36C287.44,473.59,287.17,473.9,286.82,474.12 M283.69,475.19
				c0.56,0.34,1.19,0.5,1.9,0.5s1.35-0.17,1.9-0.5c0.56-0.33,0.99-0.79,1.31-1.38c0.31-0.59,0.47-1.24,0.47-1.97
				c0-0.72-0.15-1.38-0.46-1.96s-0.75-1.04-1.3-1.38c-0.56-0.33-1.19-0.5-1.9-0.5c-0.72,0-1.36,0.17-1.92,0.5
				c-0.56,0.34-0.99,0.79-1.3,1.38s-0.46,1.24-0.46,1.96c0,0.73,0.15,1.39,0.46,1.98S283.13,474.86,283.69,475.19 M276.09,475.2
				c0.53,0.32,1.14,0.48,1.83,0.48c0.53,0,1.02-0.09,1.47-0.29c0.45-0.19,0.83-0.46,1.13-0.81c0.3-0.35,0.51-0.74,0.62-1.2
				l-1.22-0.44c-0.11,0.46-0.35,0.82-0.71,1.09s-0.79,0.41-1.27,0.41c-0.43,0-0.81-0.11-1.14-0.33c-0.34-0.21-0.6-0.52-0.78-0.91
				c-0.19-0.39-0.28-0.85-0.28-1.37s0.09-0.97,0.28-1.36c0.18-0.39,0.44-0.7,0.78-0.92c0.33-0.21,0.71-0.32,1.14-0.32
				c0.48,0,0.9,0.14,1.27,0.41c0.36,0.27,0.6,0.64,0.71,1.09l1.22-0.44c-0.12-0.46-0.33-0.86-0.64-1.21
				c-0.3-0.35-0.68-0.61-1.12-0.8s-0.93-0.28-1.44-0.28c-0.68,0-1.3,0.16-1.83,0.48c-0.54,0.32-0.95,0.77-1.25,1.35
				c-0.3,0.58-0.45,1.25-0.45,2.01c0,0.75,0.15,1.42,0.44,2C275.14,474.43,275.55,474.88,276.09,475.2 M269.35,471.82v-2.49h1.67
				c0.41,0,0.73,0.11,0.96,0.33c0.23,0.22,0.34,0.52,0.34,0.89c0,0.37-0.11,0.67-0.33,0.91c-0.23,0.24-0.55,0.36-0.96,0.36H269.35z
				 M273.26,471.81c0.21-0.36,0.32-0.79,0.32-1.27c0-0.46-0.1-0.88-0.3-1.24c-0.2-0.36-0.49-0.64-0.86-0.84
				c-0.37-0.2-0.8-0.3-1.3-0.3h-2.99v7.37h1.22v-2.62h1.76h0.05l1.01,2.62h1.36l-1.17-2.89
				C272.75,472.45,273.05,472.17,273.26,471.81 M264.99,472.98h-2.07l0.6-1.79c0.02-0.07,0.05-0.14,0.07-0.2
				c0.22-0.67,0.34-1.06,0.36-1.18c0.03,0.17,0.18,0.64,0.44,1.38L264.99,472.98z M265.37,474.1l0.48,1.43h1.45l-2.68-7.37h-1.32
				l-2.68,7.37h1.44l0.49-1.43H265.37z M258.18,471.87h-1.57v-2.55h1.57c0.42,0,0.74,0.11,0.96,0.34s0.34,0.54,0.34,0.92
				s-0.11,0.68-0.34,0.93C258.91,471.76,258.59,471.87,258.18,471.87 M255.39,468.16v7.37h1.22V473h1.66c0.5,0,0.93-0.1,1.3-0.31
				c0.37-0.2,0.65-0.49,0.86-0.86c0.2-0.37,0.3-0.79,0.3-1.27c0-0.47-0.1-0.89-0.3-1.26c-0.2-0.36-0.49-0.65-0.86-0.85
				s-0.8-0.3-1.29-0.3L255.39,468.16L255.39,468.16z"/>
		</g>
	</g>
	<g>
		<g>
			<defs>
				<rect id="SVGID_00000140711191508930941340000004795663741962032822_" x="248.23" y="371.03" width="86.84" height="104.66"/>
			</defs>
			<clipPath id="SVGID_00000046322506793550613610000013255828308479897273_">
				<use xlink:href="#SVGID_00000140711191508930941340000004795663741962032822_"  style="overflow:visible;"/>
			</clipPath>
			<path style="clip-path:url(#SVGID_00000046322506793550613610000013255828308479897273_);fill:#FFFFFF;" d="M335.07,414.46
				c0,23.98-19.44,43.42-43.42,43.42s-43.42-19.44-43.42-43.42c0-23.98,19.44-43.42,43.42-43.42S335.07,390.48,335.07,414.46"/>
		</g>
	</g>
	<g>
		<g>
			<defs>
				<rect id="SVGID_00000121246749367692581280000017448776368488136124_" x="248.23" y="371.03" width="86.84" height="104.66"/>
			</defs>
			<clipPath id="SVGID_00000092439933439298211180000009904056309318308530_">
				<use xlink:href="#SVGID_00000121246749367692581280000017448776368488136124_"  style="overflow:visible;"/>
			</clipPath>
			<path style="clip-path:url(#SVGID_00000092439933439298211180000009904056309318308530_);fill:#008D36;" d="M307.56,395.56
				c-0.14-0.36-0.47-0.61-0.85-0.64c-0.38-0.04-0.76,0.16-0.95,0.49c-0.05,0.08-1.25,2.07-4.29,2.52c-0.38,0.06-0.78,0.07-1.24,0.08
				c-1.21,0.03-2.72,0.07-5,0.98c-3.08,1.24-4.37,3.98-4.6,6.22c-1.48-1.74-3.78-3.29-7.06-3.29h-4.01c-0.55,0-1,0.45-1,1
				c0,0.1,0.13,9.67,11.26,10.01c0.12,0.49,0.25,3.44,0.34,4.25h2.02c-0.18-1.8-0.6-5.43-0.64-5.54c-0.13-0.4-0.5-0.68-0.92-0.7
				l-0.15-0.01c-7.74,0-9.43-4.86-9.8-7.01h2.9c5.39,0,6.99,5.08,7.06,5.3c0.14,0.48,0.61,0.77,1.11,0.71
				c0.49-0.07,0.86-0.5,0.86-0.99c0,0-0.01-1.14,0-3c0-0.62,0.17-3.8,3.38-5.09c1.95-0.78,3.2-0.82,4.31-0.84
				c0.5-0.01,0.98-0.02,1.48-0.1c2.07-0.31,3.51-1.19,4.43-1.99c0.22,0.88,0.44,1.99,0.44,3.01c0,4.12-1.91,9.02-11.03,9.02
				c-0.38,0-0.73,0.21-0.9,0.55c-0.4,0.81-0.87,4.78-0.99,6.69h2.03c0.08-1.17,0.31-4.51,0.55-5.25
				c11.13-0.29,12.35-7.77,12.35-11.02C308.62,398.43,307.6,395.67,307.56,395.56"/>
		</g>
	</g>
	<g>
		<g>
			<defs>
				<rect id="SVGID_00000024718972897715946250000012091077461325803910_" x="248.23" y="371.03" width="86.84" height="104.66"/>
			</defs>
			<clipPath id="SVGID_00000168103213044187333770000003138343089454135685_">
				<use xlink:href="#SVGID_00000024718972897715946250000012091077461325803910_"  style="overflow:visible;"/>
			</clipPath>
			<path style="clip-path:url(#SVGID_00000168103213044187333770000003138343089454135685_);fill:#008D36;" d="M271.56,423.63
				c0.42,5.1,5.77,7.75,7.06,8.32c0.37-0.14,1.33-0.59,3.3-1.99c-2.82-2.45-4.75-5.59-5.25-8.52L271.56,423.63z M278.55,434
				c-0.12,0-0.24-0.02-0.35-0.06c-0.35-0.13-8.67-3.34-8.67-10.96c0-0.4,0.24-0.76,0.61-0.92l7.02-3.01
				c0.31-0.13,0.67-0.1,0.95,0.08c0.28,0.19,0.45,0.5,0.45,0.84c0,2.31,1.47,6.12,5.61,9.22c0.25,0.19,0.4,0.49,0.4,0.8
				s-0.15,0.61-0.4,0.8C281.4,432.86,279.41,434,278.55,434"/>
		</g>
	</g>
	<g>
		<g>
			<defs>
				<rect id="SVGID_00000172417943238697400200000000655539986965225889_" x="248.23" y="371.03" width="86.84" height="104.66"/>
			</defs>
			<clipPath id="SVGID_00000019641254827085638050000015095078703338938022_">
				<use xlink:href="#SVGID_00000172417943238697400200000000655539986965225889_"  style="overflow:visible;"/>
			</clipPath>
			<path style="clip-path:url(#SVGID_00000019641254827085638050000015095078703338938022_);fill:#008D36;" d="M310.63,414.96
				c-1.06,0-2.15,0.11-3.65,1.24l-5.41,3.86c-0.2-1.6-1.55-3.1-3.97-3.1h-7.02c-0.88,0-1.8-0.23-2.77-0.47
				c-1.04-0.26-2.12-0.53-3.25-0.53c-5.49,0-7.76,3.31-7.85,3.45c-0.31,0.46-0.18,1.08,0.28,1.39c0.46,0.31,1.08,0.18,1.39-0.28
				c0.02-0.03,1.76-2.56,6.18-2.56c0.88,0,1.8,0.23,2.76,0.47c1.04,0.26,2.12,0.53,3.25,0.53h7.02c1.38,0,2,0.76,2,1.5
				s-0.62,1.5-2,1.5h-8.02c-0.55,0-1,0.45-1,1s0.45,1,1,1h8.02c2,0,3.38-1.04,3.59-1.19c0,0,7.1-5.09,7.14-5.12
				c0.83-0.55,1.38-0.71,2.3-0.71c0.6,0,0.85,0.3,0.95,0.64l-2.62,2.62l-9.98,7.98c-0.03,0.02-0.06,0.05-0.08,0.08
				c-1.41,1.41-2.35,1.71-5.31,1.71c-1.92,0-9.82-0.99-9.9-0.99c-0.55-0.06-1.05,0.32-1.12,0.87s0.32,1.05,0.87,1.12
				c0.33,0.04,8.1,1.01,10.15,1.01c3.1,0,4.72-0.31,6.68-2.26l9.98-7.99c0.03-0.02,0.06-0.05,0.08-0.07l3.01-3.01
				c0.19-0.19,0.29-0.44,0.29-0.71C313.63,416.75,312.83,414.96,310.63,414.96"/>
		</g>
	</g>
</g>
</svg>
