<?xml version="1.0" encoding="utf-8"?>
<!-- Generator: Adobe Illustrator 26.5.0, SVG Export Plug-In . SVG Version: 6.00 Build 0)  -->
<svg version="1.1" id="Calque_1" xmlns="http://www.w3.org/2000/svg" xmlns:xlink="http://www.w3.org/1999/xlink" x="0px" y="0px"
	 viewBox="0 0 595.28 841.89" style="enable-background:new 0 0 595.28 841.89;" xml:space="preserve">
<style type="text/css">
	.st0{fill:#FFFFFF;}
	.st1{clip-path:url(#SVGID_00000027601485889058782850000001020936522615777941_);fill:#FFFFFF;}
	.st2{clip-path:url(#SVGID_00000121987608450502970450000014309652059993300621_);fill:#008D36;}
	.st3{clip-path:url(#SVGID_00000100353456171395434950000011160752493021887105_);fill:#008D36;}
	.st4{clip-path:url(#SVGID_00000000217258648245107260000005234471392200933776_);fill:#008D36;}
	.st5{clip-path:url(#SVGID_00000044879738903335095690000012478112359589401251_);fill:#008D36;}
	.st6{clip-path:url(#SVGID_00000145036237861258582440000009391742804392151458_);fill:#008D36;}
	.st7{clip-path:url(#SVGID_00000023271874784992059830000016073717588283335324_);fill:#008D36;}
	.st8{clip-path:url(#SVGID_00000102514002583795087300000009848974760453847200_);fill:#008D36;}
	.st9{clip-path:url(#SVGID_00000106829608336483019290000005302353233817468089_);fill:#008D36;}
</style>
<circle class="st0" cx="291.86" cy="414.88" r="43.28"/>
<g>
	<g>
		<g>
			<defs>
				<rect id="SVGID_1_" x="261.65" y="390.97" width="60.86" height="84.27"/>
			</defs>
			<clipPath id="SVGID_00000177465077304110178340000001048819264800206231_">
				<use xlink:href="#SVGID_1_"  style="overflow:visible;"/>
			</clipPath>
			<path style="clip-path:url(#SVGID_00000177465077304110178340000001048819264800206231_);fill:#FFFFFF;" d="M318.35,467.72v7.37
				h4.16v-1.17h-2.94v-2h2.64v-1.1h-2.64v-1.93h2.94v-1.17L318.35,467.72L318.35,467.72z M312.99,471.37v-2.49h1.67
				c0.41,0,0.73,0.11,0.96,0.33c0.23,0.22,0.34,0.52,0.34,0.89s-0.11,0.67-0.33,0.91c-0.23,0.24-0.55,0.36-0.96,0.36H312.99z
				 M316.9,471.36c0.21-0.36,0.32-0.79,0.32-1.27c0-0.46-0.1-0.88-0.3-1.24c-0.2-0.36-0.49-0.64-0.86-0.84
				c-0.37-0.2-0.8-0.3-1.3-0.3h-2.99v7.37h1.22v-2.62h1.76h0.05l1.01,2.62h1.36l-1.17-2.89C316.39,472,316.69,471.73,316.9,471.36
				 M304.88,467.72v4.67c0,0.57,0.11,1.06,0.34,1.49s0.55,0.76,0.97,1s0.91,0.35,1.47,0.35s1.04-0.12,1.46-0.35
				c0.42-0.24,0.74-0.57,0.96-1s0.34-0.92,0.34-1.49v-4.67h-1.22v4.55c0,0.55-0.14,0.98-0.41,1.3c-0.28,0.33-0.65,0.49-1.13,0.49
				c-0.47,0-0.84-0.16-1.12-0.47c-0.28-0.32-0.42-0.75-0.42-1.32v-4.55L304.88,467.72L304.88,467.72z M304,468.88v-1.17h-5.3v1.17
				h2.05v6.2h1.22v-6.2H304z M298.97,473.91h-3.04v-6.2h-1.23v7.37h4.27L298.97,473.91L298.97,473.91z M287.81,467.72v4.67
				c0,0.57,0.11,1.06,0.34,1.49s0.55,0.76,0.97,1s0.91,0.35,1.47,0.35s1.04-0.12,1.46-0.35c0.42-0.24,0.74-0.57,0.96-1
				s0.33-0.92,0.33-1.49v-4.67h-1.21v4.55c0,0.55-0.14,0.98-0.41,1.3c-0.28,0.33-0.65,0.49-1.13,0.49c-0.47,0-0.84-0.16-1.12-0.47
				c-0.28-0.32-0.42-0.75-0.42-1.32v-4.55L287.81,467.72L287.81,467.72z M281.75,474.76c0.53,0.32,1.14,0.48,1.83,0.48
				c0.53,0,1.02-0.09,1.47-0.29c0.45-0.19,0.83-0.46,1.13-0.81c0.3-0.35,0.51-0.74,0.63-1.2l-1.22-0.44
				c-0.11,0.46-0.35,0.82-0.71,1.09s-0.79,0.41-1.27,0.41c-0.43,0-0.81-0.11-1.14-0.33c-0.33-0.21-0.6-0.52-0.78-0.91
				c-0.19-0.39-0.28-0.85-0.28-1.37s0.09-0.97,0.28-1.36c0.18-0.39,0.44-0.7,0.78-0.92c0.33-0.21,0.71-0.32,1.14-0.32
				c0.48,0,0.91,0.14,1.27,0.41s0.6,0.64,0.71,1.09l1.22-0.44c-0.12-0.46-0.34-0.86-0.64-1.21c-0.3-0.35-0.68-0.61-1.12-0.8
				s-0.93-0.28-1.44-0.28c-0.68,0-1.29,0.16-1.83,0.48c-0.54,0.32-0.95,0.77-1.25,1.35c-0.3,0.58-0.45,1.25-0.45,2.01
				c0,0.75,0.15,1.42,0.44,2C280.8,473.99,281.22,474.44,281.75,474.76 M277.76,475.08h1.19v-7.37h-1.19V475.08z M276.58,468.88
				v-1.17h-5.3v1.17h2.05v6.2h1.22v-6.2H276.58z M269.13,475.08h1.19v-7.37h-1.19V475.08z M268.31,467.72h-1.44l-1.88,5.6l-1.91-5.6
				h-1.42l2.73,7.37h1.2L268.31,467.72z"/>
		</g>
	</g>
	<g>
		<g>
			<defs>
				<rect id="SVGID_00000014633548145917234220000011975834603022650261_" x="261.65" y="390.97" width="60.86" height="84.27"/>
			</defs>
			<clipPath id="SVGID_00000096753911937910137540000007843867664588569745_">
				<use xlink:href="#SVGID_00000014633548145917234220000011975834603022650261_"  style="overflow:visible;"/>
			</clipPath>
			<path style="clip-path:url(#SVGID_00000096753911937910137540000007843867664588569745_);fill:#008D36;" d="M291.52,428.74
				c-2.26,0-4.1,1.84-4.1,4.1s1.84,4.1,4.1,4.1s4.1-1.84,4.1-4.1C295.62,430.57,293.78,428.74,291.52,428.74 M291.52,438.89
				c-3.33,0-6.06-2.72-6.06-6.06s2.72-6.06,6.06-6.06c3.35,0,6.06,2.72,6.06,6.06S294.87,438.89,291.52,438.89"/>
		</g>
	</g>
	<g>
		<g>
			<defs>
				<rect id="SVGID_00000027573787783383513390000013324929086895480730_" x="261.65" y="390.97" width="60.86" height="84.27"/>
			</defs>
			<clipPath id="SVGID_00000056390212361053488030000014738462853452921233_">
				<use xlink:href="#SVGID_00000027573787783383513390000013324929086895480730_"  style="overflow:visible;"/>
			</clipPath>
			<path style="clip-path:url(#SVGID_00000056390212361053488030000014738462853452921233_);fill:#008D36;" d="M285.26,418.92
				c-2.26,0-4.1,1.84-4.1,4.1s1.84,4.1,4.1,4.1c2.27,0,4.1-1.84,4.1-4.1C289.35,420.76,287.52,418.92,285.26,418.92 M285.26,429.08
				c-3.34,0-6.06-2.72-6.06-6.06s2.72-6.06,6.06-6.06c3.35,0,6.06,2.72,6.06,6.06C291.31,426.36,288.6,429.08,285.26,429.08"/>
		</g>
	</g>
	<g>
		<g>
			<defs>
				<rect id="SVGID_00000137092291406048086810000015490365611468846982_" x="261.65" y="390.97" width="60.86" height="84.27"/>
			</defs>
			<clipPath id="SVGID_00000013875697990084271710000002276042493590776964_">
				<use xlink:href="#SVGID_00000137092291406048086810000015490365611468846982_"  style="overflow:visible;"/>
			</clipPath>
			<path style="clip-path:url(#SVGID_00000013875697990084271710000002276042493590776964_);fill:#008D36;" d="M297.79,418.92
				c-2.26,0-4.1,1.84-4.1,4.1s1.84,4.1,4.1,4.1s4.1-1.84,4.1-4.1C301.88,420.76,300.04,418.92,297.79,418.92 M297.79,429.08
				c-3.35,0-6.06-2.72-6.06-6.06s2.71-6.06,6.06-6.06c3.33,0,6.06,2.72,6.06,6.06S301.12,429.08,297.79,429.08"/>
		</g>
	</g>
	<g>
		<g>
			<defs>
				<rect id="SVGID_00000016033324161116741220000000611865912612122017_" x="261.65" y="390.97" width="60.86" height="84.27"/>
			</defs>
			<clipPath id="SVGID_00000182511834090654954000000002040218384319447945_">
				<use xlink:href="#SVGID_00000016033324161116741220000000611865912612122017_"  style="overflow:visible;"/>
			</clipPath>
			<path style="clip-path:url(#SVGID_00000182511834090654954000000002040218384319447945_);fill:#008D36;" d="M291.52,409.1
				c-2.26,0-4.1,1.84-4.1,4.1s1.84,4.1,4.1,4.1s4.1-1.84,4.1-4.1S293.78,409.1,291.52,409.1 M291.52,419.26
				c-3.33,0-6.06-2.72-6.06-6.06s2.72-6.06,6.06-6.06c3.35,0,6.06,2.72,6.06,6.06S294.87,419.26,291.52,419.26"/>
		</g>
	</g>
	<g>
		<g>
			<defs>
				<rect id="SVGID_00000145036619366652800420000012078073736926677384_" x="261.65" y="390.97" width="60.86" height="84.27"/>
			</defs>
			<clipPath id="SVGID_00000000185663055246689700000015711008761737444229_">
				<use xlink:href="#SVGID_00000145036619366652800420000012078073736926677384_"  style="overflow:visible;"/>
			</clipPath>
			<path style="clip-path:url(#SVGID_00000000185663055246689700000015711008761737444229_);fill:#008D36;" d="M304.05,409.1
				c-2.27,0-4.11,1.84-4.11,4.1s1.84,4.1,4.11,4.1c2.26,0,4.09-1.84,4.09-4.1C308.15,410.94,306.31,409.1,304.05,409.1
				 M304.05,419.26c-3.35,0-6.06-2.72-6.06-6.06s2.71-6.06,6.06-6.06c3.33,0,6.06,2.72,6.06,6.06S307.39,419.26,304.05,419.26"/>
		</g>
	</g>
	<g>
		<g>
			<defs>
				<rect id="SVGID_00000142866357690483651770000017603526598713158837_" x="261.65" y="390.97" width="60.86" height="84.27"/>
			</defs>
			<clipPath id="SVGID_00000162342190192872874150000001564351671189791418_">
				<use xlink:href="#SVGID_00000142866357690483651770000017603526598713158837_"  style="overflow:visible;"/>
			</clipPath>
			<path style="clip-path:url(#SVGID_00000162342190192872874150000001564351671189791418_);fill:#008D36;" d="M279,409.1
				c-2.27,0-4.11,1.84-4.11,4.1s1.84,4.1,4.11,4.1c2.26,0,4.1-1.84,4.1-4.1S281.26,409.1,279,409.1 M279,419.26
				c-3.35,0-6.06-2.72-6.06-6.06s2.71-6.06,6.06-6.06c3.33,0,6.06,2.72,6.06,6.06S282.34,419.26,279,419.26"/>
		</g>
	</g>
	<g>
		<g>
			<defs>
				<rect id="SVGID_00000029754628942483870550000016507984841808344209_" x="261.65" y="390.97" width="60.86" height="84.27"/>
			</defs>
			<clipPath id="SVGID_00000005232945227482432500000014560791785471967134_">
				<use xlink:href="#SVGID_00000029754628942483870550000016507984841808344209_"  style="overflow:visible;"/>
			</clipPath>
			<path style="clip-path:url(#SVGID_00000005232945227482432500000014560791785471967134_);fill:#008D36;" d="M296.88,409.48
				c-1.82,0-3.59-0.7-5.19-2.08c-3.19,2.45-6.85,2.72-9.96,0.67c-4.05-2.67-4.9-9.2-4.94-9.48l-0.1-0.8l0.77-0.25
				c0.28-0.09,6.99-2.23,9.96,1.6l-1.55,1.2c-1.63-2.11-5.35-1.54-6.99-1.15c0.34,1.71,1.39,5.58,3.92,7.25
				c3.53,2.33,6.69,0.32,8.27-1.08l0.7-0.63l0.66,0.67c1.36,1.4,4.18,3.39,7.76,1.03c2.43-1.6,3.71-5.16,4.24-7
				c-1.78,0.01-5.11,0.18-7.21,1.19c-1.2,0.58-2.42,1.8-3.4,3.43l-1.68-1.01c0.83-1.38,2.24-3.23,4.23-4.19
				c3.4-1.64,9.11-1.38,9.36-1.36l1.13,0.05l-0.21,1.11c-0.06,0.27-1.36,6.77-5.38,9.41C299.86,409.02,298.36,409.48,296.88,409.48"
				/>
		</g>
	</g>
	<g>
		<g>
			<defs>
				<rect id="SVGID_00000070112080053590221970000014919115817511172258_" x="261.65" y="390.97" width="60.86" height="84.27"/>
			</defs>
			<clipPath id="SVGID_00000018223669681220858480000011532123221792522652_">
				<use xlink:href="#SVGID_00000070112080053590221970000014919115817511172258_"  style="overflow:visible;"/>
			</clipPath>
			<path style="clip-path:url(#SVGID_00000018223669681220858480000011532123221792522652_);fill:#008D36;" d="M287.08,404.19
				c-0.94-1.61-1.41-3.06-1.41-4.44c0-4.94,5.32-8.31,5.54-8.45l0.53-0.33l0.51,0.33c0.16,0.1,3.83,2.48,5.49,8.17l-1.88,0.55
				c-1.1-3.75-3.2-5.87-4.17-6.68c-1.21,0.91-4.07,3.37-4.07,6.4c0,1.01,0.38,2.17,1.14,3.45L287.08,404.19z"/>
		</g>
	</g>
</g>
</svg>
