<?xml version="1.0" encoding="utf-8"?>
<!-- Generator: Adobe Illustrator 26.5.0, SVG Export Plug-In . SVG Version: 6.00 Build 0)  -->
<svg version="1.1" id="Calque_1" xmlns="http://www.w3.org/2000/svg" xmlns:xlink="http://www.w3.org/1999/xlink" x="0px" y="0px"
	 viewBox="0 0 595.28 841.89" style="enable-background:new 0 0 595.28 841.89;" xml:space="preserve">
<style type="text/css">
	.st0{fill:#FFFFFF;}
	.st1{fill:#008D36;}
</style>
<circle class="st0" cx="291.86" cy="414.88" r="43.28"/>
<g>
	<path class="st0" d="M327.75,481.41l1.2-0.32c-0.09-0.59-0.36-1.06-0.81-1.41c-0.45-0.34-1.02-0.52-1.7-0.52
		c-0.48,0-0.9,0.09-1.28,0.27s-0.67,0.44-0.88,0.77s-0.32,0.72-0.32,1.17c0,0.52,0.16,0.96,0.48,1.3c0.31,0.35,0.82,0.61,1.5,0.77
		l1.01,0.26c0.59,0.14,0.88,0.45,0.88,0.93c0,0.32-0.11,0.57-0.35,0.74c-0.23,0.18-0.55,0.27-0.95,0.27c-0.45,0-0.8-0.11-1.07-0.34
		c-0.27-0.22-0.4-0.52-0.42-0.88l-1.21,0.19c0.04,0.43,0.17,0.81,0.4,1.14c0.23,0.33,0.54,0.59,0.93,0.78
		c0.39,0.19,0.85,0.28,1.37,0.28s0.97-0.09,1.37-0.28c0.4-0.18,0.7-0.45,0.92-0.79c0.21-0.34,0.32-0.73,0.32-1.18
		c0-0.51-0.15-0.94-0.44-1.29c-0.3-0.35-0.75-0.61-1.34-0.76l-1.03-0.26c-0.34-0.09-0.6-0.22-0.78-0.36
		c-0.18-0.14-0.27-0.35-0.27-0.61c0-0.29,0.11-0.52,0.32-0.7c0.21-0.18,0.49-0.27,0.84-0.27c0.37,0,0.67,0.09,0.91,0.29
		C327.57,480.81,327.71,481.08,327.75,481.41 M318.95,479.32v7.37h4.16v-1.17h-2.94v-2h2.64v-1.1h-2.64v-1.93h2.94v-1.17
		L318.95,479.32L318.95,479.32z M316.33,486.69h1.19v-7.37h-1.19V486.69z M315.2,483.42c0-0.3-0.02-0.54-0.06-0.74h-3.5v1.05h2.28
		c-0.02,0.58-0.24,1.04-0.63,1.39c-0.4,0.35-0.9,0.53-1.49,0.53c-0.47,0-0.88-0.11-1.22-0.33c-0.35-0.22-0.61-0.52-0.79-0.92
		c-0.18-0.4-0.28-0.86-0.28-1.38c0-0.52,0.09-0.97,0.28-1.37c0.18-0.4,0.44-0.71,0.78-0.93s0.73-0.33,1.18-0.33
		c0.51,0,0.95,0.13,1.29,0.38c0.35,0.26,0.59,0.6,0.7,1.04l1.18-0.49c-0.11-0.42-0.32-0.8-0.62-1.12c-0.3-0.33-0.67-0.58-1.1-0.76
		c-0.43-0.18-0.9-0.26-1.41-0.26c-0.7,0-1.33,0.16-1.88,0.48c-0.55,0.32-0.97,0.77-1.27,1.35c-0.3,0.58-0.45,1.26-0.45,2.03
		c0,0.76,0.15,1.43,0.44,2c0.29,0.58,0.71,1.02,1.25,1.34s1.17,0.48,1.89,0.48c0.68,0,1.29-0.14,1.8-0.43
		c0.51-0.29,0.91-0.69,1.19-1.2C315.06,484.69,315.2,484.1,315.2,483.42 M304.94,485.28c-0.35,0.22-0.76,0.33-1.22,0.33
		c-0.45,0-0.85-0.11-1.21-0.33s-0.63-0.53-0.83-0.93c-0.2-0.4-0.3-0.85-0.3-1.35s0.1-0.95,0.3-1.34c0.2-0.39,0.47-0.7,0.83-0.93
		c0.36-0.22,0.76-0.33,1.21-0.33c0.46,0,0.87,0.11,1.22,0.33s0.62,0.53,0.83,0.92c0.2,0.39,0.3,0.84,0.3,1.35s-0.1,0.97-0.3,1.36
		C305.56,484.75,305.29,485.06,304.94,485.28 M301.81,486.35c0.56,0.33,1.19,0.5,1.9,0.5s1.35-0.17,1.9-0.5
		c0.56-0.33,0.99-0.79,1.31-1.38c0.31-0.58,0.47-1.24,0.47-1.97c0-0.72-0.15-1.38-0.46-1.96s-0.75-1.04-1.3-1.38
		c-0.56-0.33-1.19-0.5-1.9-0.5c-0.72,0-1.36,0.17-1.91,0.5c-0.56,0.33-0.99,0.79-1.3,1.38s-0.46,1.24-0.46,1.96
		c0,0.73,0.15,1.39,0.46,1.98C300.82,485.56,301.26,486.02,301.81,486.35 M299.57,485.52h-3.04v-6.2h-1.23v7.37h4.27L299.57,485.52
		L299.57,485.52z M291.84,485.28c-0.36,0.22-0.76,0.33-1.22,0.33c-0.45,0-0.85-0.11-1.21-0.33s-0.64-0.53-0.83-0.93
		c-0.2-0.4-0.3-0.85-0.3-1.35s0.1-0.95,0.3-1.34c0.2-0.39,0.47-0.7,0.83-0.93c0.35-0.22,0.76-0.33,1.21-0.33
		c0.46,0,0.87,0.11,1.22,0.33s0.62,0.53,0.83,0.92c0.2,0.39,0.3,0.84,0.3,1.35s-0.1,0.97-0.3,1.36S292.19,485.06,291.84,485.28
		 M288.71,486.35c0.56,0.33,1.19,0.5,1.9,0.5s1.35-0.17,1.9-0.5c0.56-0.33,0.99-0.79,1.31-1.38c0.31-0.58,0.47-1.24,0.47-1.97
		c0-0.72-0.15-1.38-0.46-1.96s-0.75-1.04-1.3-1.38c-0.56-0.33-1.19-0.5-1.9-0.5c-0.72,0-1.36,0.17-1.92,0.5
		c-0.56,0.33-0.99,0.79-1.3,1.38s-0.46,1.24-0.46,1.96c0,0.73,0.15,1.39,0.46,1.98C287.73,485.56,288.16,486.02,288.71,486.35
		 M280.19,479.32v7.37h1.22v-5.26l3.22,5.26h1.21v-7.37h-1.22v5.27l-3.2-5.27H280.19z M278.76,479.32h-1.22v3.18h-3.17v-3.18h-1.22
		v7.37h1.22v-3.02h3.17v3.02h1.22V479.32z M266.99,486.36c0.53,0.32,1.14,0.48,1.83,0.48c0.53,0,1.02-0.09,1.47-0.29
		c0.45-0.19,0.83-0.46,1.13-0.81c0.3-0.34,0.51-0.74,0.63-1.2l-1.22-0.44c-0.11,0.46-0.35,0.82-0.71,1.09s-0.79,0.41-1.27,0.41
		c-0.43,0-0.81-0.11-1.14-0.32c-0.33-0.21-0.6-0.52-0.78-0.91c-0.19-0.39-0.28-0.85-0.28-1.37s0.09-0.97,0.28-1.36
		c0.18-0.39,0.44-0.7,0.78-0.92c0.33-0.21,0.71-0.32,1.14-0.32c0.48,0,0.91,0.14,1.27,0.41s0.6,0.63,0.71,1.09l1.22-0.44
		c-0.12-0.46-0.34-0.86-0.64-1.21c-0.3-0.35-0.68-0.61-1.12-0.8s-0.93-0.28-1.44-0.28c-0.68,0-1.29,0.16-1.83,0.48
		c-0.54,0.32-0.95,0.77-1.25,1.35c-0.3,0.58-0.45,1.25-0.45,2.01c0,0.75,0.15,1.42,0.44,2S266.46,486.04,266.99,486.36
		 M260.44,479.32v7.37h4.16v-1.17h-2.94v-2h2.64v-1.1h-2.64v-1.93h2.94v-1.17L260.44,479.32L260.44,479.32z M259.48,480.49v-1.17
		h-5.3v1.17h2.05v6.2h1.22v-6.2H259.48z"/>
	<path class="st0" d="M317.97,469.31l1.2-0.32c-0.09-0.59-0.36-1.06-0.81-1.41c-0.45-0.34-1.02-0.52-1.7-0.52
		c-0.48,0-0.9,0.09-1.28,0.27s-0.67,0.44-0.88,0.77s-0.32,0.72-0.32,1.17c0,0.52,0.16,0.95,0.48,1.3c0.32,0.35,0.82,0.61,1.5,0.77
		l1.01,0.26c0.59,0.14,0.88,0.45,0.88,0.92c0,0.32-0.11,0.57-0.35,0.74c-0.23,0.18-0.55,0.27-0.95,0.27c-0.45,0-0.8-0.11-1.07-0.34
		c-0.27-0.22-0.4-0.52-0.42-0.88l-1.21,0.19c0.04,0.43,0.17,0.81,0.4,1.14c0.23,0.33,0.54,0.6,0.93,0.78
		c0.39,0.19,0.85,0.28,1.37,0.28s0.97-0.09,1.37-0.28c0.4-0.18,0.7-0.45,0.92-0.79c0.21-0.34,0.32-0.73,0.32-1.18
		c0-0.51-0.15-0.94-0.44-1.29c-0.3-0.35-0.75-0.61-1.34-0.76l-1.03-0.26c-0.34-0.09-0.6-0.22-0.78-0.36
		c-0.18-0.14-0.27-0.35-0.27-0.61c0-0.29,0.11-0.52,0.32-0.7c0.21-0.18,0.49-0.27,0.84-0.27c0.37,0,0.67,0.09,0.91,0.29
		C317.79,468.71,317.93,468.98,317.97,469.31 M309.17,467.23v7.37h4.16v-1.17h-2.94v-2h2.64v-1.1h-2.64v-1.93h2.94v-1.17
		L309.17,467.23L309.17,467.23z M308.14,473.42h-3.04v-6.2h-1.23v7.37h4.27L308.14,473.42L308.14,473.42z M302.84,473.42h-3.04v-6.2
		h-1.23v7.37h4.27L302.84,473.42L302.84,473.42z M293.33,467.23v7.37h4.16v-1.17h-2.94v-2h2.64v-1.1h-2.64v-1.93h2.94v-1.17
		L293.33,467.23L293.33,467.23z M292.51,467.23h-1.44l-1.89,5.6l-1.92-5.6h-1.42l2.73,7.37h1.21L292.51,467.23z M279.56,467.23v4.67
		c0,0.57,0.11,1.06,0.34,1.49s0.55,0.76,0.97,1s0.91,0.35,1.47,0.35s1.04-0.12,1.46-0.35c0.42-0.24,0.74-0.57,0.96-1
		s0.33-0.93,0.33-1.49v-4.67h-1.21v4.55c0,0.55-0.14,0.98-0.41,1.3c-0.28,0.33-0.65,0.49-1.13,0.49c-0.47,0-0.84-0.16-1.12-0.47
		c-0.28-0.32-0.42-0.75-0.42-1.32v-4.55L279.56,467.23L279.56,467.23z M276.08,473.18c-0.35,0.22-0.76,0.33-1.22,0.33
		c-0.45,0-0.85-0.11-1.21-0.33s-0.64-0.53-0.83-0.93c-0.2-0.4-0.3-0.85-0.3-1.35s0.1-0.95,0.3-1.34c0.2-0.39,0.47-0.7,0.83-0.92
		c0.35-0.22,0.76-0.33,1.21-0.33c0.46,0,0.87,0.11,1.22,0.33s0.62,0.53,0.83,0.92c0.2,0.39,0.29,0.84,0.29,1.35s-0.1,0.96-0.29,1.36
		C276.7,472.66,276.43,472.96,276.08,473.18 M272.95,474.26c0.56,0.33,1.19,0.5,1.9,0.5s1.35-0.17,1.9-0.5
		c0.56-0.33,0.99-0.79,1.31-1.38c0.31-0.59,0.47-1.24,0.47-1.97c0-0.72-0.15-1.38-0.46-1.96s-0.75-1.04-1.3-1.38
		c-0.56-0.33-1.19-0.5-1.9-0.5c-0.72,0-1.36,0.17-1.92,0.5c-0.56,0.33-0.99,0.79-1.3,1.38s-0.46,1.24-0.46,1.96
		c0,0.73,0.15,1.39,0.46,1.98S272.4,473.93,272.95,474.26 M264.43,467.23v7.37h1.22v-5.26l3.22,5.26h1.21v-7.37h-1.22v5.27
		l-3.21-5.27H264.43z"/>
</g>
<g>
	<path class="st1" d="M311.35,412.53h-10.47c-0.32,0-0.61,0.15-0.79,0.41l-2.91,4.14h-10.96l-2.91-4.14
		c-0.18-0.26-0.48-0.41-0.79-0.41h-10.47v-3.05h8.31c0.19,0,0.38-0.06,0.54-0.17l7.18-4.83h7.26l7.18,4.83
		c0.16,0.11,0.35,0.17,0.54,0.17h8.31v3.05H311.35z M296.83,432.65h-10.27v-9.01h10.27V432.65z M315.45,402.28H301.8
		c-0.54,0-0.97,0.44-0.97,0.97c0,0.54,0.43,0.97,0.97,0.97h5.85v3.31h-4.32l-7.18-4.83c-0.16-0.11-0.35-0.17-0.54-0.17h-7.85
		c-0.19,0-0.38,0.06-0.54,0.17l-7.18,4.83h-4.32v-3.31h5.85c0.54,0,0.97-0.43,0.97-0.97s-0.44-0.97-0.97-0.97h-13.65
		c-0.54,0-0.97,0.44-0.97,0.97c0,0.54,0.43,0.97,0.97,0.97h5.85v3.31h-2.72c-0.54,0-0.97,0.43-0.97,0.97v4.99
		c0,0.54,0.44,0.97,0.97,0.97h10.93l0.03,0.04c-2.18,1.05-6.9,4.15-6.9,11.16c0,0.54,0.43,0.97,0.97,0.97s0.97-0.43,0.97-0.97
		c0-6.42,4.52-8.89,6.09-9.55l1.76,2.5c0.18,0.26,0.48,0.41,0.8,0.41h5.01v2.67h-5.14c-0.54,0-0.97,0.43-0.97,0.97v10.95
		c0,0.54,0.43,0.97,0.97,0.97h12.22c0.54,0,0.97-0.43,0.97-0.97v-10.95c0-0.54-0.43-0.97-0.97-0.97h-5.14v-2.67h5.01
		c0.32,0,0.61-0.15,0.79-0.41l1.76-2.49c1.55,0.67,6.09,3.18,6.09,9.55c0,0.54,0.43,0.97,0.97,0.97s0.97-0.43,0.97-0.97
		c0-7.01-4.73-10.1-6.9-11.16l0.03-0.04h10.93c0.54,0,0.97-0.43,0.97-0.97v-4.99c0-0.54-0.43-0.97-0.97-0.97h-2.72v-3.31h5.85
		c0.54,0,0.97-0.43,0.97-0.97C316.42,402.72,315.98,402.28,315.45,402.28"/>
</g>
</svg>
